<?xml version="1.0"?>
<svg xmlns="http://www.w3.org/2000/svg" id="mosaics" width="262" height="382">
  <defs>
    <pattern id="pattern1" x="0" y="0" width="20" height="20" patternUnits="userSpaceOnUse">
      <line id="hline" x1="1" y1="1" x2="20" y2="1" style="stroke: rgb(0, 0, 0); stroke-width: 2px;"/>
      <line id="vline" x1="1" y1="0" x2="1" y2="20" style="stroke: rgb(0, 0, 0); stroke-width: 2px;"/>
    </pattern>
  </defs>
  <rect x="20" y="20" width="242" height="362" style="stroke: black; fill: url(#pattern1);"/>
  <text id="n10" x="30" y="14" text-anchor="middle">1</text>
  <text id="n20" x="50" y="14" text-anchor="middle">2</text>
  <text id="n30" x="70" y="14" text-anchor="middle">3</text>
  <text id="n40" x="90" y="14" text-anchor="middle">4</text>
  <text id="n50" x="110" y="14" text-anchor="middle">5</text>
  <text id="n60" x="130" y="14" text-anchor="middle">6</text>
  <text id="n70" x="150" y="14" text-anchor="middle">7</text>
  <text id="n80" x="170" y="14" text-anchor="middle">8</text>
  <text id="n90" x="190" y="14" text-anchor="middle">9</text>
  <text id="n100" x="210" y="14" text-anchor="middle">10</text>
  <text id="n110" x="230" y="14" text-anchor="middle">11</text>
  <text id="n120" x="250" y="14" text-anchor="middle">12</text>
  <text id="n01" x="10" y="34" text-anchor="middle">1</text>
  <text id="n02" x="10" y="54" text-anchor="middle">2</text>
  <text id="n03" x="10" y="74" text-anchor="middle">3</text>
  <text id="n04" x="10" y="94" text-anchor="middle">4</text>
  <text id="n05" x="10" y="114" text-anchor="middle">5</text>
  <text id="n06" x="10" y="134" text-anchor="middle">6</text>
  <text id="n07" x="10" y="154" text-anchor="middle">7</text>
  <text id="n08" x="10" y="174" text-anchor="middle">8</text>
  <text id="n09" x="10" y="194" text-anchor="middle">9</text>
  <text id="n010" x="10" y="214" text-anchor="middle">10</text>
  <text id="n011" x="10" y="234" text-anchor="middle">11</text>
  <text id="n012" x="10" y="254" text-anchor="middle">12</text>
  <text id="n013" x="10" y="274" text-anchor="middle">13</text>
  <text id="n014" x="10" y="294" text-anchor="middle">14</text>
  <text id="n015" x="10" y="314" text-anchor="middle">15</text>
  <text id="n016" x="10" y="334" text-anchor="middle">16</text>
  <text id="n017" x="10" y="354" text-anchor="middle">17</text>
  <text id="n018" x="10" y="374" text-anchor="middle">18</text>
  <rect id="e1_2" x="22" y="42" width="18" height="18" style="fill: rgb(0, 128, 0);"/>
  <rect id="e2_2" x="42" y="42" width="18" height="18" style="fill: rgb(0, 128, 0);"/>
  <rect id="e3_2" x="62" y="42" width="18" height="18" style="fill: rgb(0, 128, 0);"/>
  <rect id="e4_2" x="82" y="42" width="18" height="18" style="fill: rgb(0, 128, 0);"/>
  <rect id="e1_3" x="22" y="62" width="18" height="18" style="fill: rgb(0, 128, 0);"/>
  <rect id="e2_3" x="42" y="62" width="18" height="18" style="fill: rgb(0, 128, 0);"/>
  <rect id="e3_3" x="62" y="62" width="18" height="18" style="fill: rgb(0, 128, 0);"/>
  <rect id="e4_3" x="82" y="62" width="18" height="18" style="fill: rgb(0, 128, 0);"/>
  <rect id="e1_4" x="22" y="82" width="18" height="18" style="fill: rgb(0, 128, 0);"/>
  <rect id="e2_4" x="42" y="82" width="18" height="18" style="fill: rgb(0, 128, 0);"/>
  <rect id="e3_4" x="62" y="82" width="18" height="18" style="fill: rgb(0, 128, 0);"/>
  <rect id="e4_4" x="82" y="82" width="18" height="18" style="fill: rgb(0, 128, 0);"/>
  <rect id="e1_5" x="22" y="102" width="18" height="18" style="fill: rgb(0, 128, 0);"/>
  <rect id="e2_5" x="42" y="102" width="18" height="18" style="fill: rgb(0, 128, 0);"/>
  <rect id="e3_5" x="62" y="102" width="18" height="18" style="fill: rgb(0, 128, 0);"/>
  <rect id="e4_5" x="82" y="102" width="18" height="18" style="fill: rgb(0, 128, 0);"/>
  <rect id="e1_6" x="22" y="122" width="18" height="18" style="fill: rgb(0, 128, 0);"/>
  <rect id="e2_6" x="42" y="122" width="18" height="18" style="fill: rgb(0, 128, 0);"/>
  <rect id="e3_6" x="62" y="122" width="18" height="18" style="fill: rgb(0, 128, 0);"/>
  <rect id="e4_6" x="82" y="122" width="18" height="18" style="fill: rgb(0, 128, 0);"/>
</svg>
