<?xml version="1.0"?>
<svg xmlns="http://www.w3.org/2000/svg" id="mosaics" width="522" height="522" viewbox="0 0 522 522">
  <defs>
    <pattern patternUnits="userSpaceOnUse" height="40" width="40" y="0" x="0" id="mosaics-grid-pattern">
      <line style="stroke: black; stroke-width: 2;" y2="1" x2="40" y1="1" x1="1" id="hline"/>
      <line style="stroke: black; stroke-width: 2;" y2="40" x2="1" y1="0" x1="1" id="vline"/>
    </pattern>
  </defs>
  <rect style="stroke: black; fill: url(#mosaics-grid-pattern);" height="482" width="482" y="40" x="40"/>
  <text id="n10" x="60" y="28" text-anchor="middle">1</text>
  <text id="n20" x="100" y="28" text-anchor="middle">2</text>
  <text id="n30" x="140" y="28" text-anchor="middle">3</text>
  <text id="n40" x="180" y="28" text-anchor="middle">4</text>
  <text id="n50" x="220" y="28" text-anchor="middle">5</text>
  <text id="n60" x="260" y="28" text-anchor="middle">6</text>
  <text id="n70" x="300" y="28" text-anchor="middle">7</text>
  <text id="n80" x="340" y="28" text-anchor="middle">8</text>
  <text id="n90" x="380" y="28" text-anchor="middle">9</text>
  <text id="n100" x="420" y="28" text-anchor="middle">10</text>
  <text id="n110" x="460" y="28" text-anchor="middle">11</text>
  <text id="n120" x="500" y="28" text-anchor="middle">12</text>
  <text id="n01" x="20" y="68" text-anchor="middle">1</text>
  <text id="n02" x="20" y="108" text-anchor="middle">2</text>
  <text id="n03" x="20" y="148" text-anchor="middle">3</text>
  <text id="n04" x="20" y="188" text-anchor="middle">4</text>
  <text id="n05" x="20" y="228" text-anchor="middle">5</text>
  <text id="n06" x="20" y="268" text-anchor="middle">6</text>
  <text id="n07" x="20" y="308" text-anchor="middle">7</text>
  <text id="n08" x="20" y="348" text-anchor="middle">8</text>
  <text id="n09" x="20" y="388" text-anchor="middle">9</text>
  <text id="n010" x="20" y="428" text-anchor="middle">10</text>
  <text id="n011" x="20" y="468" text-anchor="middle">11</text>
  <text id="n012" x="20" y="508" text-anchor="middle">12</text>
  <rect id="e1_1" x="42" y="42" width="38" height="38" style="fill: rgb(0, 0, 0);"/>
  <rect id="e1_2" x="42" y="82" width="38" height="38" style="fill: rgb(0, 0, 0);"/>
  <rect id="e1_3" x="42" y="122" width="38" height="38" style="fill: rgb(0, 0, 0);"/>
  <rect id="e1_4" x="42" y="162" width="38" height="38" style="fill: rgb(0, 0, 0);"/>
  <rect id="e2_1" x="82" y="42" width="38" height="38" style="fill: rgb(0, 0, 0);"/>
  <rect id="e2_2" x="82" y="82" width="38" height="38" style="fill: rgb(0, 0, 0);"/>
  <rect id="e2_3" x="82" y="122" width="38" height="38" style="fill: rgb(0, 0, 0);"/>
  <rect id="e2_4" x="82" y="162" width="38" height="38" style="fill: rgb(0, 0, 0);"/>
  <rect id="e3_1" x="122" y="42" width="38" height="38" style="fill: rgb(0, 0, 0);"/>
  <rect id="e3_2" x="122" y="82" width="38" height="38" style="fill: rgb(0, 0, 0);"/>
  <rect id="e3_3" x="122" y="122" width="38" height="38" style="fill: rgb(0, 0, 0);"/>
  <rect id="e3_4" x="122" y="162" width="38" height="38" style="fill: rgb(0, 0, 0);"/>
  <rect id="e4_1" x="162" y="42" width="38" height="38" style="fill: rgb(0, 0, 0);"/>
  <rect id="e4_2" x="162" y="82" width="38" height="38" style="fill: rgb(0, 0, 0);"/>
  <rect id="e4_3" x="162" y="122" width="38" height="38" style="fill: rgb(0, 0, 0);"/>
  <rect id="e4_4" x="162" y="162" width="38" height="38" style="fill: rgb(0, 0, 0);"/>
  <rect id="e5_5" x="202" y="202" width="38" height="38" style="fill: rgb(128, 0, 0);"/>
  <rect id="e6_5" x="242" y="202" width="38" height="38" style="fill: rgb(128, 0, 0);"/>
  <rect id="e7_5" x="282" y="202" width="38" height="38" style="fill: rgb(128, 0, 0);"/>
  <rect id="e8_5" x="322" y="202" width="38" height="38" style="fill: rgb(128, 0, 0);"/>
  <rect id="e5_6" x="202" y="242" width="38" height="38" style="fill: rgb(128, 0, 0);"/>
  <rect id="e6_6" x="242" y="242" width="38" height="38" style="fill: rgb(128, 0, 0);"/>
  <rect id="e7_6" x="282" y="242" width="38" height="38" style="fill: rgb(128, 0, 0);"/>
  <rect id="e8_6" x="322" y="242" width="38" height="38" style="fill: rgb(128, 0, 0);"/>
  <rect id="e5_7" x="202" y="282" width="38" height="38" style="fill: rgb(128, 0, 0);"/>
  <rect id="e6_7" x="242" y="282" width="38" height="38" style="fill: rgb(128, 0, 0);"/>
  <rect id="e7_7" x="282" y="282" width="38" height="38" style="fill: rgb(128, 0, 0);"/>
  <rect id="e8_7" x="322" y="282" width="38" height="38" style="fill: rgb(128, 0, 0);"/>
  <rect id="e5_8" x="202" y="322" width="38" height="38" style="fill: rgb(128, 0, 0);"/>
  <rect id="e6_8" x="242" y="322" width="38" height="38" style="fill: rgb(128, 0, 0);"/>
  <rect id="e7_8" x="282" y="322" width="38" height="38" style="fill: rgb(128, 0, 0);"/>
  <rect id="e8_8" x="322" y="322" width="38" height="38" style="fill: rgb(128, 0, 0);"/>
  <line id="e5_1" x1="221" y1="42" x2="221" y2="80" style="stroke: rgb(255, 165, 0); stroke-width: 2;"/>
  <line id="e5_2" x1="221" y1="82" x2="221" y2="120" style="stroke: rgb(255, 165, 0); stroke-width: 2;"/>
  <line id="e5_3" x1="221" y1="122" x2="221" y2="160" style="stroke: rgb(255, 165, 0); stroke-width: 2;"/>
  <line id="e5_4" x1="221" y1="162" x2="221" y2="200" style="stroke: rgb(255, 165, 0); stroke-width: 2;"/>
  <line id="e6_1" x1="261" y1="42" x2="261" y2="80" style="stroke: rgb(255, 165, 0); stroke-width: 2;"/>
  <line id="e6_2" x1="261" y1="82" x2="261" y2="120" style="stroke: rgb(255, 165, 0); stroke-width: 2;"/>
  <line id="e6_3" x1="261" y1="122" x2="261" y2="160" style="stroke: rgb(255, 165, 0); stroke-width: 2;"/>
  <line id="e6_4" x1="261" y1="162" x2="261" y2="200" style="stroke: rgb(255, 165, 0); stroke-width: 2;"/>
  <line id="e7_1" x1="301" y1="42" x2="301" y2="80" style="stroke: rgb(255, 165, 0); stroke-width: 2;"/>
  <line id="e7_2" x1="301" y1="82" x2="301" y2="120" style="stroke: rgb(255, 165, 0); stroke-width: 2;"/>
  <line id="e7_3" x1="301" y1="122" x2="301" y2="160" style="stroke: rgb(255, 165, 0); stroke-width: 2;"/>
  <line id="e7_4" x1="301" y1="162" x2="301" y2="200" style="stroke: rgb(255, 165, 0); stroke-width: 2;"/>
  <line id="e8_1" x1="341" y1="42" x2="341" y2="80" style="stroke: rgb(255, 165, 0); stroke-width: 2;"/>
  <line id="e8_2" x1="341" y1="82" x2="341" y2="120" style="stroke: rgb(255, 165, 0); stroke-width: 2;"/>
  <line id="e8_3" x1="341" y1="122" x2="341" y2="160" style="stroke: rgb(255, 165, 0); stroke-width: 2;"/>
  <line id="e8_4" x1="341" y1="162" x2="341" y2="200" style="stroke: rgb(255, 165, 0); stroke-width: 2;"/>
  <line id="e1_5" x1="61" y1="202" x2="61" y2="240" style="stroke: rgb(255, 165, 0); stroke-width: 2;"/>
  <line id="e1_6" x1="61" y1="242" x2="61" y2="280" style="stroke: rgb(255, 165, 0); stroke-width: 2;"/>
  <line id="e1_7" x1="61" y1="282" x2="61" y2="320" style="stroke: rgb(255, 165, 0); stroke-width: 2;"/>
  <line id="e1_8" x1="61" y1="322" x2="61" y2="360" style="stroke: rgb(255, 165, 0); stroke-width: 2;"/>
  <line id="e2_5" x1="101" y1="202" x2="101" y2="240" style="stroke: rgb(255, 165, 0); stroke-width: 2;"/>
  <line id="e2_6" x1="101" y1="242" x2="101" y2="280" style="stroke: rgb(255, 165, 0); stroke-width: 2;"/>
  <line id="e2_7" x1="101" y1="282" x2="101" y2="320" style="stroke: rgb(255, 165, 0); stroke-width: 2;"/>
  <line id="e2_8" x1="101" y1="322" x2="101" y2="360" style="stroke: rgb(255, 165, 0); stroke-width: 2;"/>
  <line id="e3_5" x1="141" y1="202" x2="141" y2="240" style="stroke: rgb(255, 165, 0); stroke-width: 2;"/>
  <line id="e3_6" x1="141" y1="242" x2="141" y2="280" style="stroke: rgb(255, 165, 0); stroke-width: 2;"/>
  <line id="e3_7" x1="141" y1="282" x2="141" y2="320" style="stroke: rgb(255, 165, 0); stroke-width: 2;"/>
  <line id="e3_8" x1="141" y1="322" x2="141" y2="360" style="stroke: rgb(255, 165, 0); stroke-width: 2;"/>
  <line id="e4_5" x1="181" y1="202" x2="181" y2="240" style="stroke: rgb(255, 165, 0); stroke-width: 2;"/>
  <line id="e4_6" x1="181" y1="242" x2="181" y2="280" style="stroke: rgb(255, 165, 0); stroke-width: 2;"/>
  <line id="e4_7" x1="181" y1="282" x2="181" y2="320" style="stroke: rgb(255, 165, 0); stroke-width: 2;"/>
  <line id="e4_8" x1="181" y1="322" x2="181" y2="360" style="stroke: rgb(255, 165, 0); stroke-width: 2;"/>
  <rect id="e9_1" x="362" y="42" width="38" height="38" style="fill: rgb(0, 0, 0);"/>
  <rect id="e9_2" x="362" y="82" width="38" height="38" style="fill: rgb(0, 0, 0);"/>
  <rect id="e9_3" x="362" y="122" width="38" height="38" style="fill: rgb(0, 0, 0);"/>
  <rect id="e9_4" x="362" y="162" width="38" height="38" style="fill: rgb(0, 0, 0);"/>
  <rect id="e10_1" x="402" y="42" width="38" height="38" style="fill: rgb(0, 0, 0);"/>
  <rect id="e10_2" x="402" y="82" width="38" height="38" style="fill: rgb(0, 0, 0);"/>
  <rect id="e10_3" x="402" y="122" width="38" height="38" style="fill: rgb(0, 0, 0);"/>
  <rect id="e10_4" x="402" y="162" width="38" height="38" style="fill: rgb(0, 0, 0);"/>
  <rect id="e11_1" x="442" y="42" width="38" height="38" style="fill: rgb(0, 0, 0);"/>
  <rect id="e11_2" x="442" y="82" width="38" height="38" style="fill: rgb(0, 0, 0);"/>
  <rect id="e11_3" x="442" y="122" width="38" height="38" style="fill: rgb(0, 0, 0);"/>
  <rect id="e11_4" x="442" y="162" width="38" height="38" style="fill: rgb(0, 0, 0);"/>
  <rect id="e12_1" x="482" y="42" width="38" height="38" style="fill: rgb(0, 0, 0);"/>
  <rect id="e12_2" x="482" y="82" width="38" height="38" style="fill: rgb(0, 0, 0);"/>
  <rect id="e12_3" x="482" y="122" width="38" height="38" style="fill: rgb(0, 0, 0);"/>
  <rect id="e12_4" x="482" y="162" width="38" height="38" style="fill: rgb(0, 0, 0);"/>
  <line id="e9_5" x1="381" y1="202" x2="381" y2="240" style="stroke: rgb(255, 165, 0); stroke-width: 2;"/>
  <line id="e9_6" x1="381" y1="242" x2="381" y2="280" style="stroke: rgb(255, 165, 0); stroke-width: 2;"/>
  <line id="e9_7" x1="381" y1="282" x2="381" y2="320" style="stroke: rgb(255, 165, 0); stroke-width: 2;"/>
  <line id="e9_8" x1="381" y1="322" x2="381" y2="360" style="stroke: rgb(255, 165, 0); stroke-width: 2;"/>
  <line id="e10_5" x1="421" y1="202" x2="421" y2="240" style="stroke: rgb(255, 165, 0); stroke-width: 2;"/>
  <line id="e10_6" x1="421" y1="242" x2="421" y2="280" style="stroke: rgb(255, 165, 0); stroke-width: 2;"/>
  <line id="e10_7" x1="421" y1="282" x2="421" y2="320" style="stroke: rgb(255, 165, 0); stroke-width: 2;"/>
  <line id="e10_8" x1="421" y1="322" x2="421" y2="360" style="stroke: rgb(255, 165, 0); stroke-width: 2;"/>
  <line id="e11_5" x1="461" y1="202" x2="461" y2="240" style="stroke: rgb(255, 165, 0); stroke-width: 2;"/>
  <line id="e11_6" x1="461" y1="242" x2="461" y2="280" style="stroke: rgb(255, 165, 0); stroke-width: 2;"/>
  <line id="e11_7" x1="461" y1="282" x2="461" y2="320" style="stroke: rgb(255, 165, 0); stroke-width: 2;"/>
  <line id="e11_8" x1="461" y1="322" x2="461" y2="360" style="stroke: rgb(255, 165, 0); stroke-width: 2;"/>
  <line id="e12_5" x1="501" y1="202" x2="501" y2="240" style="stroke: rgb(255, 165, 0); stroke-width: 2;"/>
  <line id="e12_6" x1="501" y1="242" x2="501" y2="280" style="stroke: rgb(255, 165, 0); stroke-width: 2;"/>
  <line id="e12_7" x1="501" y1="282" x2="501" y2="320" style="stroke: rgb(255, 165, 0); stroke-width: 2;"/>
  <line id="e12_8" x1="501" y1="322" x2="501" y2="360" style="stroke: rgb(255, 165, 0); stroke-width: 2;"/>
  <rect id="e1_9" x="42" y="362" width="38" height="38" style="fill: rgb(0, 0, 0);"/>
  <rect id="e2_9" x="82" y="362" width="38" height="38" style="fill: rgb(0, 0, 0);"/>
  <rect id="e3_9" x="122" y="362" width="38" height="38" style="fill: rgb(0, 0, 0);"/>
  <rect id="e4_9" x="162" y="362" width="38" height="38" style="fill: rgb(0, 0, 0);"/>
  <rect id="e5_9" x="202" y="362" width="38" height="38" style="fill: rgb(0, 0, 0);"/>
  <rect id="e6_9" x="242" y="362" width="38" height="38" style="fill: rgb(0, 0, 0);"/>
  <rect id="e7_9" x="282" y="362" width="38" height="38" style="fill: rgb(0, 0, 0);"/>
  <rect id="e8_9" x="322" y="362" width="38" height="38" style="fill: rgb(0, 0, 0);"/>
  <rect id="e9_9" x="362" y="362" width="38" height="38" style="fill: rgb(0, 0, 0);"/>
  <rect id="e10_9" x="402" y="362" width="38" height="38" style="fill: rgb(0, 0, 0);"/>
  <rect id="e11_9" x="442" y="362" width="38" height="38" style="fill: rgb(0, 0, 0);"/>
  <rect id="e12_9" x="482" y="362" width="38" height="38" style="fill: rgb(0, 0, 0);"/>
  <rect id="e1_10" x="42" y="402" width="38" height="38" style="fill: rgb(0, 0, 0);"/>
  <rect id="e2_10" x="82" y="402" width="38" height="38" style="fill: rgb(0, 0, 0);"/>
  <rect id="e3_10" x="122" y="402" width="38" height="38" style="fill: rgb(0, 0, 0);"/>
  <rect id="e4_10" x="162" y="402" width="38" height="38" style="fill: rgb(0, 0, 0);"/>
  <rect id="e5_10" x="202" y="402" width="38" height="38" style="fill: rgb(0, 0, 0);"/>
  <rect id="e6_10" x="242" y="402" width="38" height="38" style="fill: rgb(0, 0, 0);"/>
  <rect id="e7_10" x="282" y="402" width="38" height="38" style="fill: rgb(0, 0, 0);"/>
  <rect id="e8_10" x="322" y="402" width="38" height="38" style="fill: rgb(0, 0, 0);"/>
  <rect id="e9_10" x="362" y="402" width="38" height="38" style="fill: rgb(0, 0, 0);"/>
  <rect id="e10_10" x="402" y="402" width="38" height="38" style="fill: rgb(0, 0, 0);"/>
  <rect id="e11_10" x="442" y="402" width="38" height="38" style="fill: rgb(0, 0, 0);"/>
  <rect id="e12_10" x="482" y="402" width="38" height="38" style="fill: rgb(0, 0, 0);"/>
  <rect id="e1_11" x="42" y="442" width="38" height="38" style="fill: rgb(0, 0, 0);"/>
  <rect id="e2_11" x="82" y="442" width="38" height="38" style="fill: rgb(0, 0, 0);"/>
  <rect id="e3_11" x="122" y="442" width="38" height="38" style="fill: rgb(0, 0, 0);"/>
  <rect id="e4_11" x="162" y="442" width="38" height="38" style="fill: rgb(0, 0, 0);"/>
  <rect id="e5_11" x="202" y="442" width="38" height="38" style="fill: rgb(0, 0, 0);"/>
  <rect id="e6_11" x="242" y="442" width="38" height="38" style="fill: rgb(0, 0, 0);"/>
  <rect id="e7_11" x="282" y="442" width="38" height="38" style="fill: rgb(0, 0, 0);"/>
  <rect id="e8_11" x="322" y="442" width="38" height="38" style="fill: rgb(0, 0, 0);"/>
  <rect id="e9_11" x="362" y="442" width="38" height="38" style="fill: rgb(0, 0, 0);"/>
  <rect id="e10_11" x="402" y="442" width="38" height="38" style="fill: rgb(0, 0, 0);"/>
  <rect id="e11_11" x="442" y="442" width="38" height="38" style="fill: rgb(0, 0, 0);"/>
  <rect id="e12_11" x="482" y="442" width="38" height="38" style="fill: rgb(0, 0, 0);"/>
  <rect id="e1_12" x="42" y="482" width="38" height="38" style="fill: rgb(0, 0, 0);"/>
  <rect id="e2_12" x="82" y="482" width="38" height="38" style="fill: rgb(0, 0, 0);"/>
  <rect id="e3_12" x="122" y="482" width="38" height="38" style="fill: rgb(0, 0, 0);"/>
  <rect id="e4_12" x="162" y="482" width="38" height="38" style="fill: rgb(0, 0, 0);"/>
  <rect id="e5_12" x="202" y="482" width="38" height="38" style="fill: rgb(0, 0, 0);"/>
  <rect id="e6_12" x="242" y="482" width="38" height="38" style="fill: rgb(0, 0, 0);"/>
  <rect id="e7_12" x="282" y="482" width="38" height="38" style="fill: rgb(0, 0, 0);"/>
  <rect id="e8_12" x="322" y="482" width="38" height="38" style="fill: rgb(0, 0, 0);"/>
  <rect id="e9_12" x="362" y="482" width="38" height="38" style="fill: rgb(0, 0, 0);"/>
  <rect id="e10_12" x="402" y="482" width="38" height="38" style="fill: rgb(0, 0, 0);"/>
  <rect id="e11_12" x="442" y="482" width="38" height="38" style="fill: rgb(0, 0, 0);"/>
  <rect id="e12_12" x="482" y="482" width="38" height="38" style="fill: rgb(0, 0, 0);"/>
</svg>
