<?xml version="1.0"?>
<svg xmlns="http://www.w3.org/2000/svg" id="mosaics" width="362" height="362">
  <defs>
    <pattern id="pattern1" x="0" y="0" width="40" height="40" patternUnits="userSpaceOnUse">
      <line id="hline" x1="1" y1="1" x2="40" y2="1" style="stroke: rgb(0, 0, 0); stroke-width: 2px;"/>
      <line id="vline" x1="1" y1="0" x2="1" y2="40" style="stroke: rgb(0, 0, 0); stroke-width: 2px;"/>
    </pattern>
  </defs>
  <rect x="40" y="40" width="322" height="322" style="stroke: black; fill: url(#pattern1);"/>
  <text id="n10" x="60" y="28" text-anchor="middle">1</text>
  <text id="n20" x="100" y="28" text-anchor="middle">2</text>
  <text id="n30" x="140" y="28" text-anchor="middle">3</text>
  <text id="n40" x="180" y="28" text-anchor="middle">4</text>
  <text id="n50" x="220" y="28" text-anchor="middle">5</text>
  <text id="n60" x="260" y="28" text-anchor="middle">6</text>
  <text id="n70" x="300" y="28" text-anchor="middle">7</text>
  <text id="n80" x="340" y="28" text-anchor="middle">8</text>
  <text id="n01" x="20" y="68" text-anchor="middle">1</text>
  <text id="n02" x="20" y="108" text-anchor="middle">2</text>
  <text id="n03" x="20" y="148" text-anchor="middle">3</text>
  <text id="n04" x="20" y="188" text-anchor="middle">4</text>
  <text id="n05" x="20" y="228" text-anchor="middle">5</text>
  <text id="n06" x="20" y="268" text-anchor="middle">6</text>
  <text id="n07" x="20" y="308" text-anchor="middle">7</text>
  <text id="n08" x="20" y="348" text-anchor="middle">8</text>
  <rect id="e33" x="122" y="122" width="38" height="38" style="fill: rgb(255, 255, 0);"/>
  <rect id="e43" x="162" y="122" width="38" height="38" style="fill: rgb(255, 255, 0);"/>
  <rect id="e34" x="122" y="162" width="38" height="38" style="fill: rgb(255, 255, 0);"/>
  <rect id="e65" x="242" y="202" width="38" height="38" style="fill: rgb(255, 255, 0);"/>
  <rect id="e56" x="202" y="242" width="38" height="38" style="fill: rgb(255, 255, 0);"/>
  <rect id="e66" x="242" y="242" width="38" height="38" style="fill: rgb(255, 255, 0);"/>
  <rect id="e44" x="162" y="162" width="38" height="38" style="fill: rgb(0, 0, 255);"/>
  <rect id="e55" x="202" y="202" width="38" height="38" style="fill: rgb(0, 0, 255);"/>
  <polygon id="e42" points="200,82 200,120 162,120" style="fill: rgb(255, 0, 0);"/>
  <polygon id="e57" points="202,282 240,282 202,320" style="fill: rgb(255, 0, 0);"/>
  <polygon id="e24" points="120,162 120,200 82,200" style="fill: rgb(255, 0, 0);"/>
  <polygon id="e75" points="282,202 320,202 282,240" style="fill: rgb(255, 0, 0);"/>
  <rect id="e11" x="42" y="42" width="38" height="38" style="fill: rgb(0, 0, 255);"/>
  <rect id="e21" x="82" y="42" width="38" height="38" style="fill: rgb(0, 0, 255);"/>
  <rect id="e12" x="42" y="82" width="38" height="38" style="fill: rgb(0, 0, 255);"/>
  <rect id="e22" x="82" y="82" width="38" height="38" style="fill: rgb(0, 0, 255);"/>
  <rect id="e77" x="282" y="282" width="38" height="38" style="fill: rgb(0, 0, 255);"/>
  <rect id="e87" x="322" y="282" width="38" height="38" style="fill: rgb(0, 0, 255);"/>
  <rect id="e97" x="362" y="282" width="38" height="38" style="fill: rgb(0, 0, 255);"/>
  <rect id="e107" x="402" y="282" width="38" height="38" style="fill: rgb(0, 0, 255);"/>
  <rect id="e117" x="442" y="282" width="38" height="38" style="fill: rgb(0, 0, 255);"/>
  <rect id="e127" x="482" y="282" width="38" height="38" style="fill: rgb(0, 0, 255);"/>
  <rect id="e137" x="522" y="282" width="38" height="38" style="fill: rgb(0, 0, 255);"/>
  <rect id="e147" x="562" y="282" width="38" height="38" style="fill: rgb(0, 0, 255);"/>
  <rect id="e78" x="282" y="322" width="38" height="38" style="fill: rgb(0, 0, 255);"/>
  <rect id="e88" x="322" y="322" width="38" height="38" style="fill: rgb(0, 0, 255);"/>
  <rect id="e98" x="362" y="322" width="38" height="38" style="fill: rgb(0, 0, 255);"/>
  <rect id="e108" x="402" y="322" width="38" height="38" style="fill: rgb(0, 0, 255);"/>
  <rect id="e118" x="442" y="322" width="38" height="38" style="fill: rgb(0, 0, 255);"/>
  <rect id="e128" x="482" y="322" width="38" height="38" style="fill: rgb(0, 0, 255);"/>
  <rect id="e138" x="522" y="322" width="38" height="38" style="fill: rgb(0, 0, 255);"/>
  <rect id="e148" x="562" y="322" width="38" height="38" style="fill: rgb(0, 0, 255);"/>
  <rect id="e79" x="282" y="362" width="38" height="38" style="fill: rgb(0, 0, 255);"/>
  <rect id="e89" x="322" y="362" width="38" height="38" style="fill: rgb(0, 0, 255);"/>
  <rect id="e99" x="362" y="362" width="38" height="38" style="fill: rgb(0, 0, 255);"/>
  <rect id="e109" x="402" y="362" width="38" height="38" style="fill: rgb(0, 0, 255);"/>
  <rect id="e119" x="442" y="362" width="38" height="38" style="fill: rgb(0, 0, 255);"/>
  <rect id="e129" x="482" y="362" width="38" height="38" style="fill: rgb(0, 0, 255);"/>
  <rect id="e139" x="522" y="362" width="38" height="38" style="fill: rgb(0, 0, 255);"/>
  <rect id="e149" x="562" y="362" width="38" height="38" style="fill: rgb(0, 0, 255);"/>
  <rect id="e710" x="282" y="402" width="38" height="38" style="fill: rgb(0, 0, 255);"/>
  <rect id="e810" x="322" y="402" width="38" height="38" style="fill: rgb(0, 0, 255);"/>
  <rect id="e910" x="362" y="402" width="38" height="38" style="fill: rgb(0, 0, 255);"/>
  <rect id="e1010" x="402" y="402" width="38" height="38" style="fill: rgb(0, 0, 255);"/>
  <rect id="e1110" x="442" y="402" width="38" height="38" style="fill: rgb(0, 0, 255);"/>
  <rect id="e1210" x="482" y="402" width="38" height="38" style="fill: rgb(0, 0, 255);"/>
  <rect id="e1310" x="522" y="402" width="38" height="38" style="fill: rgb(0, 0, 255);"/>
  <rect id="e1410" x="562" y="402" width="38" height="38" style="fill: rgb(0, 0, 255);"/>
  <rect id="e711" x="282" y="442" width="38" height="38" style="fill: rgb(0, 0, 255);"/>
  <rect id="e811" x="322" y="442" width="38" height="38" style="fill: rgb(0, 0, 255);"/>
  <rect id="e911" x="362" y="442" width="38" height="38" style="fill: rgb(0, 0, 255);"/>
  <rect id="e1011" x="402" y="442" width="38" height="38" style="fill: rgb(0, 0, 255);"/>
  <rect id="e1111" x="442" y="442" width="38" height="38" style="fill: rgb(0, 0, 255);"/>
  <rect id="e1211" x="482" y="442" width="38" height="38" style="fill: rgb(0, 0, 255);"/>
  <rect id="e1311" x="522" y="442" width="38" height="38" style="fill: rgb(0, 0, 255);"/>
  <rect id="e1411" x="562" y="442" width="38" height="38" style="fill: rgb(0, 0, 255);"/>
  <rect id="e712" x="282" y="482" width="38" height="38" style="fill: rgb(0, 0, 255);"/>
  <rect id="e812" x="322" y="482" width="38" height="38" style="fill: rgb(0, 0, 255);"/>
  <rect id="e912" x="362" y="482" width="38" height="38" style="fill: rgb(0, 0, 255);"/>
  <rect id="e1012" x="402" y="482" width="38" height="38" style="fill: rgb(0, 0, 255);"/>
  <rect id="e1112" x="442" y="482" width="38" height="38" style="fill: rgb(0, 0, 255);"/>
  <rect id="e1212" x="482" y="482" width="38" height="38" style="fill: rgb(0, 0, 255);"/>
  <rect id="e1312" x="522" y="482" width="38" height="38" style="fill: rgb(0, 0, 255);"/>
  <rect id="e1412" x="562" y="482" width="38" height="38" style="fill: rgb(0, 0, 255);"/>
  <rect id="e713" x="282" y="522" width="38" height="38" style="fill: rgb(0, 0, 255);"/>
  <rect id="e813" x="322" y="522" width="38" height="38" style="fill: rgb(0, 0, 255);"/>
  <rect id="e913" x="362" y="522" width="38" height="38" style="fill: rgb(0, 0, 255);"/>
  <rect id="e1013" x="402" y="522" width="38" height="38" style="fill: rgb(0, 0, 255);"/>
  <rect id="e1113" x="442" y="522" width="38" height="38" style="fill: rgb(0, 0, 255);"/>
  <rect id="e1213" x="482" y="522" width="38" height="38" style="fill: rgb(0, 0, 255);"/>
  <rect id="e1313" x="522" y="522" width="38" height="38" style="fill: rgb(0, 0, 255);"/>
  <rect id="e1413" x="562" y="522" width="38" height="38" style="fill: rgb(0, 0, 255);"/>
  <rect id="e714" x="282" y="562" width="38" height="38" style="fill: rgb(0, 0, 255);"/>
  <rect id="e814" x="322" y="562" width="38" height="38" style="fill: rgb(0, 0, 255);"/>
  <rect id="e914" x="362" y="562" width="38" height="38" style="fill: rgb(0, 0, 255);"/>
  <rect id="e1014" x="402" y="562" width="38" height="38" style="fill: rgb(0, 0, 255);"/>
  <rect id="e1114" x="442" y="562" width="38" height="38" style="fill: rgb(0, 0, 255);"/>
  <rect id="e1214" x="482" y="562" width="38" height="38" style="fill: rgb(0, 0, 255);"/>
  <rect id="e1314" x="522" y="562" width="38" height="38" style="fill: rgb(0, 0, 255);"/>
  <rect id="e1414" x="562" y="562" width="38" height="38" style="fill: rgb(0, 0, 255);"/>
  <rect id="e71" x="282" y="42" width="38" height="38" style="fill: rgb(192, 192, 192);"/>
  <rect id="e81" x="322" y="42" width="38" height="38" style="fill: rgb(192, 192, 192);"/>
  <rect id="e91" x="362" y="42" width="38" height="38" style="fill: rgb(192, 192, 192);"/>
  <rect id="e101" x="402" y="42" width="38" height="38" style="fill: rgb(192, 192, 192);"/>
  <rect id="e121" x="482" y="42" width="38" height="38" style="fill: rgb(192, 192, 192);"/>
  <rect id="e131" x="522" y="42" width="38" height="38" style="fill: rgb(192, 192, 192);"/>
  <rect id="e141" x="562" y="42" width="38" height="38" style="fill: rgb(192, 192, 192);"/>
  <rect id="e72" x="282" y="82" width="38" height="38" style="fill: rgb(192, 192, 192);"/>
  <rect id="e82" x="322" y="82" width="38" height="38" style="fill: rgb(192, 192, 192);"/>
  <rect id="e92" x="362" y="82" width="38" height="38" style="fill: rgb(192, 192, 192);"/>
  <rect id="e102" x="402" y="82" width="38" height="38" style="fill: rgb(192, 192, 192);"/>
  <rect id="e122" x="482" y="82" width="38" height="38" style="fill: rgb(192, 192, 192);"/>
  <rect id="e132" x="522" y="82" width="38" height="38" style="fill: rgb(192, 192, 192);"/>
  <rect id="e142" x="562" y="82" width="38" height="38" style="fill: rgb(192, 192, 192);"/>
  <rect id="e17" x="42" y="282" width="38" height="38" style="fill: rgb(192, 192, 192);"/>
  <rect id="e27" x="82" y="282" width="38" height="38" style="fill: rgb(192, 192, 192);"/>
  <rect id="e18" x="42" y="322" width="38" height="38" style="fill: rgb(192, 192, 192);"/>
  <rect id="e28" x="82" y="322" width="38" height="38" style="fill: rgb(192, 192, 192);"/>
  <rect id="e19" x="42" y="362" width="38" height="38" style="fill: rgb(192, 192, 192);"/>
  <rect id="e29" x="82" y="362" width="38" height="38" style="fill: rgb(192, 192, 192);"/>
  <rect id="e110" x="42" y="402" width="38" height="38" style="fill: rgb(192, 192, 192);"/>
  <rect id="e210" x="82" y="402" width="38" height="38" style="fill: rgb(192, 192, 192);"/>
  <rect id="e111" x="42" y="442" width="38" height="38" style="fill: rgb(192, 192, 192);"/>
  <rect id="e211" x="82" y="442" width="38" height="38" style="fill: rgb(192, 192, 192);"/>
  <rect id="e112" x="42" y="482" width="38" height="38" style="fill: rgb(192, 192, 192);"/>
  <rect id="e212" x="82" y="482" width="38" height="38" style="fill: rgb(192, 192, 192);"/>
  <rect id="e113" x="42" y="522" width="38" height="38" style="fill: rgb(192, 192, 192);"/>
  <rect id="e213" x="82" y="522" width="38" height="38" style="fill: rgb(192, 192, 192);"/>
  <rect id="e114" x="42" y="562" width="38" height="38" style="fill: rgb(192, 192, 192);"/>
  <rect id="e214" x="82" y="562" width="38" height="38" style="fill: rgb(192, 192, 192);"/>
  <line id="e35" x1="122" y1="202" x2="160" y2="240" style="stroke: rgb(0, 0, 0); stroke-width: 2px;"/>
  <line id="e46" x1="162" y1="242" x2="200" y2="280" style="stroke: rgb(0, 0, 0); stroke-width: 2px;"/>
  <line id="e53" x1="202" y1="122" x2="240" y2="160" style="stroke: rgb(0, 0, 0); stroke-width: 2px;"/>
  <line id="e64" x1="242" y1="162" x2="280" y2="200" style="stroke: rgb(0, 0, 0); stroke-width: 2px;"/>
</svg>
