<?xml version="1.0"?>
<svg xmlns="http://www.w3.org/2000/svg" id="mosaics" width="502" height="502" viewBox="0 0 502 502">
  <defs>
    <pattern id="pattern1" x="0" y="0" width="20" height="20" patternUnits="userSpaceOnUse">
      <line id="hline" x1="1" y1="1" x2="20" y2="1" style="stroke: rgb(0, 0, 0); stroke-width: 2px;"/>
      <line id="vline" x1="1" y1="0" x2="1" y2="20" style="stroke: rgb(0, 0, 0); stroke-width: 2px;"/>
    </pattern>
  </defs>
  <rect x="20" y="20" width="482" height="482" style="stroke: black; fill: url(#pattern1);"/>
  <text id="n10" x="30" y="14" text-anchor="middle">1</text>
  <text id="n20" x="50" y="14" text-anchor="middle">2</text>
  <text id="n30" x="70" y="14" text-anchor="middle">3</text>
  <text id="n40" x="90" y="14" text-anchor="middle">4</text>
  <text id="n50" x="110" y="14" text-anchor="middle">5</text>
  <text id="n60" x="130" y="14" text-anchor="middle">6</text>
  <text id="n70" x="150" y="14" text-anchor="middle">7</text>
  <text id="n80" x="170" y="14" text-anchor="middle">8</text>
  <text id="n90" x="190" y="14" text-anchor="middle">9</text>
  <text id="n100" x="210" y="14" text-anchor="middle">10</text>
  <text id="n110" x="230" y="14" text-anchor="middle">11</text>
  <text id="n120" x="250" y="14" text-anchor="middle">12</text>
  <text id="n130" x="270" y="14" text-anchor="middle">13</text>
  <text id="n140" x="290" y="14" text-anchor="middle">14</text>
  <text id="n150" x="310" y="14" text-anchor="middle">15</text>
  <text id="n160" x="330" y="14" text-anchor="middle">16</text>
  <text id="n170" x="350" y="14" text-anchor="middle">17</text>
  <text id="n180" x="370" y="14" text-anchor="middle">18</text>
  <text id="n190" x="390" y="14" text-anchor="middle">19</text>
  <text id="n200" x="410" y="14" text-anchor="middle">20</text>
  <text id="n210" x="430" y="14" text-anchor="middle">21</text>
  <text id="n220" x="450" y="14" text-anchor="middle">22</text>
  <text id="n230" x="470" y="14" text-anchor="middle">23</text>
  <text id="n240" x="490" y="14" text-anchor="middle">24</text>
  <text id="n01" x="10" y="34" text-anchor="middle">1</text>
  <text id="n02" x="10" y="54" text-anchor="middle">2</text>
  <text id="n03" x="10" y="74" text-anchor="middle">3</text>
  <text id="n04" x="10" y="94" text-anchor="middle">4</text>
  <text id="n05" x="10" y="114" text-anchor="middle">5</text>
  <text id="n06" x="10" y="134" text-anchor="middle">6</text>
  <text id="n07" x="10" y="154" text-anchor="middle">7</text>
  <text id="n08" x="10" y="174" text-anchor="middle">8</text>
  <text id="n09" x="10" y="194" text-anchor="middle">9</text>
  <text id="n010" x="10" y="214" text-anchor="middle">10</text>
  <text id="n011" x="10" y="234" text-anchor="middle">11</text>
  <text id="n012" x="10" y="254" text-anchor="middle">12</text>
  <text id="n013" x="10" y="274" text-anchor="middle">13</text>
  <text id="n014" x="10" y="294" text-anchor="middle">14</text>
  <text id="n015" x="10" y="314" text-anchor="middle">15</text>
  <text id="n016" x="10" y="334" text-anchor="middle">16</text>
  <text id="n017" x="10" y="354" text-anchor="middle">17</text>
  <text id="n018" x="10" y="374" text-anchor="middle">18</text>
  <text id="n019" x="10" y="394" text-anchor="middle">19</text>
  <text id="n020" x="10" y="414" text-anchor="middle">20</text>
  <text id="n021" x="10" y="434" text-anchor="middle">21</text>
  <text id="n022" x="10" y="454" text-anchor="middle">22</text>
  <text id="n023" x="10" y="474" text-anchor="middle">23</text>
  <text id="n024" x="10" y="494" text-anchor="middle">24</text>
  <circle id="e4_4" r="9" cx="91" cy="91" style="fill: rgb(255, 0, 0);"/>
  <circle id="e4_5" r="9" cx="91" cy="111" style="fill: rgb(255, 0, 0);"/>
  <circle id="e4_6" r="9" cx="91" cy="131" style="fill: rgb(255, 0, 0);"/>
  <circle id="e4_7" r="9" cx="91" cy="151" style="fill: rgb(255, 0, 0);"/>
  <circle id="e4_8" r="9" cx="91" cy="171" style="fill: rgb(255, 0, 0);"/>
  <circle id="e4_9" r="9" cx="91" cy="191" style="fill: rgb(255, 0, 0);"/>
  <circle id="e4_10" r="9" cx="91" cy="211" style="fill: rgb(255, 0, 0);"/>
  <circle id="e4_11" r="9" cx="91" cy="231" style="fill: rgb(255, 0, 0);"/>
  <circle id="e4_12" r="9" cx="91" cy="251" style="fill: rgb(255, 0, 0);"/>
  <circle id="e4_13" r="9" cx="91" cy="271" style="fill: rgb(255, 0, 0);"/>
  <circle id="e4_14" r="9" cx="91" cy="291" style="fill: rgb(255, 0, 0);"/>
  <circle id="e4_15" r="9" cx="91" cy="311" style="fill: rgb(255, 0, 0);"/>
  <circle id="e4_16" r="9" cx="91" cy="331" style="fill: rgb(255, 0, 0);"/>
  <circle id="e5_4" r="9" cx="111" cy="91" style="fill: rgb(255, 0, 0);"/>
  <circle id="e5_5" r="9" cx="111" cy="111" style="fill: rgb(255, 0, 0);"/>
  <circle id="e5_6" r="9" cx="111" cy="131" style="fill: rgb(255, 0, 0);"/>
  <circle id="e5_7" r="9" cx="111" cy="151" style="fill: rgb(255, 0, 0);"/>
  <circle id="e5_8" r="9" cx="111" cy="171" style="fill: rgb(255, 0, 0);"/>
  <circle id="e5_9" r="9" cx="111" cy="191" style="fill: rgb(255, 0, 0);"/>
  <circle id="e5_10" r="9" cx="111" cy="211" style="fill: rgb(255, 0, 0);"/>
  <circle id="e5_11" r="9" cx="111" cy="231" style="fill: rgb(255, 0, 0);"/>
  <circle id="e5_12" r="9" cx="111" cy="251" style="fill: rgb(255, 0, 0);"/>
  <circle id="e5_13" r="9" cx="111" cy="271" style="fill: rgb(255, 0, 0);"/>
  <circle id="e5_14" r="9" cx="111" cy="291" style="fill: rgb(255, 0, 0);"/>
  <circle id="e5_15" r="9" cx="111" cy="311" style="fill: rgb(255, 0, 0);"/>
  <circle id="e5_16" r="9" cx="111" cy="331" style="fill: rgb(255, 0, 0);"/>
  <circle id="e6_4" r="9" cx="131" cy="91" style="fill: rgb(255, 0, 0);"/>
  <circle id="e6_5" r="9" cx="131" cy="111" style="fill: rgb(255, 0, 0);"/>
  <circle id="e6_6" r="9" cx="131" cy="131" style="fill: rgb(255, 0, 0);"/>
  <circle id="e6_7" r="9" cx="131" cy="151" style="fill: rgb(255, 0, 0);"/>
  <circle id="e6_8" r="9" cx="131" cy="171" style="fill: rgb(255, 0, 0);"/>
  <circle id="e6_9" r="9" cx="131" cy="191" style="fill: rgb(255, 0, 0);"/>
  <circle id="e6_10" r="9" cx="131" cy="211" style="fill: rgb(255, 0, 0);"/>
  <circle id="e6_11" r="9" cx="131" cy="231" style="fill: rgb(255, 0, 0);"/>
  <circle id="e6_12" r="9" cx="131" cy="251" style="fill: rgb(255, 0, 0);"/>
  <circle id="e6_13" r="9" cx="131" cy="271" style="fill: rgb(255, 0, 0);"/>
  <circle id="e6_14" r="9" cx="131" cy="291" style="fill: rgb(255, 0, 0);"/>
  <circle id="e6_15" r="9" cx="131" cy="311" style="fill: rgb(255, 0, 0);"/>
  <circle id="e6_16" r="9" cx="131" cy="331" style="fill: rgb(255, 0, 0);"/>
  <circle id="e7_4" r="9" cx="151" cy="91" style="fill: rgb(255, 0, 0);"/>
  <circle id="e7_5" r="9" cx="151" cy="111" style="fill: rgb(255, 0, 0);"/>
  <circle id="e7_6" r="9" cx="151" cy="131" style="fill: rgb(255, 0, 0);"/>
  <circle id="e7_7" r="9" cx="151" cy="151" style="fill: rgb(255, 0, 0);"/>
  <circle id="e7_8" r="9" cx="151" cy="171" style="fill: rgb(255, 0, 0);"/>
  <circle id="e7_9" r="9" cx="151" cy="191" style="fill: rgb(255, 0, 0);"/>
  <circle id="e7_10" r="9" cx="151" cy="211" style="fill: rgb(255, 0, 0);"/>
  <circle id="e7_11" r="9" cx="151" cy="231" style="fill: rgb(255, 0, 0);"/>
  <circle id="e7_12" r="9" cx="151" cy="251" style="fill: rgb(255, 0, 0);"/>
  <circle id="e7_13" r="9" cx="151" cy="271" style="fill: rgb(255, 0, 0);"/>
  <circle id="e7_14" r="9" cx="151" cy="291" style="fill: rgb(255, 0, 0);"/>
  <circle id="e7_15" r="9" cx="151" cy="311" style="fill: rgb(255, 0, 0);"/>
  <circle id="e7_16" r="9" cx="151" cy="331" style="fill: rgb(255, 0, 0);"/>
  <circle id="e8_4" r="9" cx="171" cy="91" style="fill: rgb(255, 0, 0);"/>
  <circle id="e8_5" r="9" cx="171" cy="111" style="fill: rgb(255, 0, 0);"/>
  <circle id="e8_6" r="9" cx="171" cy="131" style="fill: rgb(255, 0, 0);"/>
  <circle id="e8_7" r="9" cx="171" cy="151" style="fill: rgb(255, 0, 0);"/>
  <circle id="e8_8" r="9" cx="171" cy="171" style="fill: rgb(255, 0, 0);"/>
  <circle id="e8_9" r="9" cx="171" cy="191" style="fill: rgb(255, 0, 0);"/>
  <circle id="e8_10" r="9" cx="171" cy="211" style="fill: rgb(255, 0, 0);"/>
  <circle id="e8_11" r="9" cx="171" cy="231" style="fill: rgb(255, 0, 0);"/>
  <circle id="e8_12" r="9" cx="171" cy="251" style="fill: rgb(255, 0, 0);"/>
  <circle id="e8_13" r="9" cx="171" cy="271" style="fill: rgb(255, 0, 0);"/>
  <circle id="e8_14" r="9" cx="171" cy="291" style="fill: rgb(255, 0, 0);"/>
  <circle id="e8_15" r="9" cx="171" cy="311" style="fill: rgb(255, 0, 0);"/>
  <circle id="e8_16" r="9" cx="171" cy="331" style="fill: rgb(255, 0, 0);"/>
  <circle id="e9_4" r="9" cx="191" cy="91" style="fill: rgb(255, 0, 0);"/>
  <circle id="e9_5" r="9" cx="191" cy="111" style="fill: rgb(255, 0, 0);"/>
  <circle id="e9_6" r="9" cx="191" cy="131" style="fill: rgb(255, 0, 0);"/>
  <circle id="e9_7" r="9" cx="191" cy="151" style="fill: rgb(255, 0, 0);"/>
  <circle id="e9_8" r="9" cx="191" cy="171" style="fill: rgb(255, 0, 0);"/>
  <circle id="e9_9" r="9" cx="191" cy="191" style="fill: rgb(255, 0, 0);"/>
  <circle id="e9_10" r="9" cx="191" cy="211" style="fill: rgb(255, 0, 0);"/>
  <circle id="e9_11" r="9" cx="191" cy="231" style="fill: rgb(255, 0, 0);"/>
  <circle id="e9_12" r="9" cx="191" cy="251" style="fill: rgb(255, 0, 0);"/>
  <circle id="e9_13" r="9" cx="191" cy="271" style="fill: rgb(255, 0, 0);"/>
  <circle id="e9_14" r="9" cx="191" cy="291" style="fill: rgb(255, 0, 0);"/>
  <circle id="e9_15" r="9" cx="191" cy="311" style="fill: rgb(255, 0, 0);"/>
  <circle id="e9_16" r="9" cx="191" cy="331" style="fill: rgb(255, 0, 0);"/>
  <circle id="e10_4" r="9" cx="211" cy="91" style="fill: rgb(255, 0, 0);"/>
  <circle id="e10_5" r="9" cx="211" cy="111" style="fill: rgb(255, 0, 0);"/>
  <circle id="e10_6" r="9" cx="211" cy="131" style="fill: rgb(255, 0, 0);"/>
  <circle id="e10_7" r="9" cx="211" cy="151" style="fill: rgb(255, 0, 0);"/>
  <circle id="e10_8" r="9" cx="211" cy="171" style="fill: rgb(255, 0, 0);"/>
  <circle id="e10_9" r="9" cx="211" cy="191" style="fill: rgb(255, 0, 0);"/>
  <circle id="e10_10" r="9" cx="211" cy="211" style="fill: rgb(255, 0, 0);"/>
  <circle id="e10_11" r="9" cx="211" cy="231" style="fill: rgb(255, 0, 0);"/>
  <circle id="e10_12" r="9" cx="211" cy="251" style="fill: rgb(255, 0, 0);"/>
  <circle id="e10_13" r="9" cx="211" cy="271" style="fill: rgb(255, 0, 0);"/>
  <circle id="e10_14" r="9" cx="211" cy="291" style="fill: rgb(255, 0, 0);"/>
  <circle id="e10_15" r="9" cx="211" cy="311" style="fill: rgb(255, 0, 0);"/>
  <circle id="e10_16" r="9" cx="211" cy="331" style="fill: rgb(255, 0, 0);"/>
  <circle id="e11_4" r="9" cx="231" cy="91" style="fill: rgb(255, 0, 0);"/>
  <circle id="e11_5" r="9" cx="231" cy="111" style="fill: rgb(255, 0, 0);"/>
  <circle id="e11_6" r="9" cx="231" cy="131" style="fill: rgb(255, 0, 0);"/>
  <circle id="e11_7" r="9" cx="231" cy="151" style="fill: rgb(255, 0, 0);"/>
  <circle id="e11_8" r="9" cx="231" cy="171" style="fill: rgb(255, 0, 0);"/>
  <circle id="e11_9" r="9" cx="231" cy="191" style="fill: rgb(255, 0, 0);"/>
  <circle id="e11_10" r="9" cx="231" cy="211" style="fill: rgb(255, 0, 0);"/>
  <circle id="e11_11" r="9" cx="231" cy="231" style="fill: rgb(255, 0, 0);"/>
  <circle id="e11_12" r="9" cx="231" cy="251" style="fill: rgb(255, 0, 0);"/>
  <circle id="e11_13" r="9" cx="231" cy="271" style="fill: rgb(255, 0, 0);"/>
  <circle id="e11_14" r="9" cx="231" cy="291" style="fill: rgb(255, 0, 0);"/>
  <circle id="e11_15" r="9" cx="231" cy="311" style="fill: rgb(255, 0, 0);"/>
  <circle id="e11_16" r="9" cx="231" cy="331" style="fill: rgb(255, 0, 0);"/>
  <circle id="e12_4" r="9" cx="251" cy="91" style="fill: rgb(255, 0, 0);"/>
  <circle id="e12_5" r="9" cx="251" cy="111" style="fill: rgb(255, 0, 0);"/>
  <circle id="e12_6" r="9" cx="251" cy="131" style="fill: rgb(255, 0, 0);"/>
  <circle id="e12_7" r="9" cx="251" cy="151" style="fill: rgb(255, 0, 0);"/>
  <circle id="e12_8" r="9" cx="251" cy="171" style="fill: rgb(255, 0, 0);"/>
  <circle id="e12_9" r="9" cx="251" cy="191" style="fill: rgb(255, 0, 0);"/>
  <circle id="e12_10" r="9" cx="251" cy="211" style="fill: rgb(255, 0, 0);"/>
  <circle id="e12_11" r="9" cx="251" cy="231" style="fill: rgb(255, 0, 0);"/>
  <circle id="e12_12" r="9" cx="251" cy="251" style="fill: rgb(255, 0, 0);"/>
  <circle id="e12_13" r="9" cx="251" cy="271" style="fill: rgb(255, 0, 0);"/>
  <circle id="e12_14" r="9" cx="251" cy="291" style="fill: rgb(255, 0, 0);"/>
  <circle id="e12_15" r="9" cx="251" cy="311" style="fill: rgb(255, 0, 0);"/>
  <circle id="e12_16" r="9" cx="251" cy="331" style="fill: rgb(255, 0, 0);"/>
  <circle id="e13_4" r="9" cx="271" cy="91" style="fill: rgb(255, 0, 0);"/>
  <circle id="e13_5" r="9" cx="271" cy="111" style="fill: rgb(255, 0, 0);"/>
  <circle id="e13_6" r="9" cx="271" cy="131" style="fill: rgb(255, 0, 0);"/>
  <circle id="e13_7" r="9" cx="271" cy="151" style="fill: rgb(255, 0, 0);"/>
  <circle id="e13_8" r="9" cx="271" cy="171" style="fill: rgb(255, 0, 0);"/>
  <circle id="e13_9" r="9" cx="271" cy="191" style="fill: rgb(255, 0, 0);"/>
  <circle id="e13_10" r="9" cx="271" cy="211" style="fill: rgb(255, 0, 0);"/>
  <circle id="e13_11" r="9" cx="271" cy="231" style="fill: rgb(255, 0, 0);"/>
  <circle id="e13_12" r="9" cx="271" cy="251" style="fill: rgb(255, 0, 0);"/>
  <circle id="e13_13" r="9" cx="271" cy="271" style="fill: rgb(255, 0, 0);"/>
  <circle id="e13_14" r="9" cx="271" cy="291" style="fill: rgb(255, 0, 0);"/>
  <circle id="e13_15" r="9" cx="271" cy="311" style="fill: rgb(255, 0, 0);"/>
  <circle id="e13_16" r="9" cx="271" cy="331" style="fill: rgb(255, 0, 0);"/>
  <circle id="e14_4" r="9" cx="291" cy="91" style="fill: rgb(255, 0, 0);"/>
  <circle id="e14_5" r="9" cx="291" cy="111" style="fill: rgb(255, 0, 0);"/>
  <circle id="e14_6" r="9" cx="291" cy="131" style="fill: rgb(255, 0, 0);"/>
  <circle id="e14_7" r="9" cx="291" cy="151" style="fill: rgb(255, 0, 0);"/>
  <circle id="e14_8" r="9" cx="291" cy="171" style="fill: rgb(255, 0, 0);"/>
  <circle id="e14_9" r="9" cx="291" cy="191" style="fill: rgb(255, 0, 0);"/>
  <circle id="e14_10" r="9" cx="291" cy="211" style="fill: rgb(255, 0, 0);"/>
  <circle id="e14_11" r="9" cx="291" cy="231" style="fill: rgb(255, 0, 0);"/>
  <circle id="e14_12" r="9" cx="291" cy="251" style="fill: rgb(255, 0, 0);"/>
  <circle id="e14_13" r="9" cx="291" cy="271" style="fill: rgb(255, 0, 0);"/>
  <circle id="e14_14" r="9" cx="291" cy="291" style="fill: rgb(255, 0, 0);"/>
  <circle id="e14_15" r="9" cx="291" cy="311" style="fill: rgb(255, 0, 0);"/>
  <circle id="e14_16" r="9" cx="291" cy="331" style="fill: rgb(255, 0, 0);"/>
  <circle id="e15_4" r="9" cx="311" cy="91" style="fill: rgb(255, 0, 0);"/>
  <circle id="e15_5" r="9" cx="311" cy="111" style="fill: rgb(255, 0, 0);"/>
  <circle id="e15_6" r="9" cx="311" cy="131" style="fill: rgb(255, 0, 0);"/>
  <circle id="e15_7" r="9" cx="311" cy="151" style="fill: rgb(255, 0, 0);"/>
  <circle id="e15_8" r="9" cx="311" cy="171" style="fill: rgb(255, 0, 0);"/>
  <circle id="e15_9" r="9" cx="311" cy="191" style="fill: rgb(255, 0, 0);"/>
  <circle id="e15_10" r="9" cx="311" cy="211" style="fill: rgb(255, 0, 0);"/>
  <circle id="e15_11" r="9" cx="311" cy="231" style="fill: rgb(255, 0, 0);"/>
  <circle id="e15_12" r="9" cx="311" cy="251" style="fill: rgb(255, 0, 0);"/>
  <circle id="e15_13" r="9" cx="311" cy="271" style="fill: rgb(255, 0, 0);"/>
  <circle id="e15_14" r="9" cx="311" cy="291" style="fill: rgb(255, 0, 0);"/>
  <circle id="e15_15" r="9" cx="311" cy="311" style="fill: rgb(255, 0, 0);"/>
  <circle id="e15_16" r="9" cx="311" cy="331" style="fill: rgb(255, 0, 0);"/>
  <circle id="e16_4" r="9" cx="331" cy="91" style="fill: rgb(255, 0, 0);"/>
  <circle id="e16_5" r="9" cx="331" cy="111" style="fill: rgb(255, 0, 0);"/>
  <circle id="e16_6" r="9" cx="331" cy="131" style="fill: rgb(255, 0, 0);"/>
  <circle id="e16_7" r="9" cx="331" cy="151" style="fill: rgb(255, 0, 0);"/>
  <circle id="e16_8" r="9" cx="331" cy="171" style="fill: rgb(255, 0, 0);"/>
  <circle id="e16_9" r="9" cx="331" cy="191" style="fill: rgb(255, 0, 0);"/>
  <circle id="e16_10" r="9" cx="331" cy="211" style="fill: rgb(255, 0, 0);"/>
  <circle id="e16_11" r="9" cx="331" cy="231" style="fill: rgb(255, 0, 0);"/>
  <circle id="e16_12" r="9" cx="331" cy="251" style="fill: rgb(255, 0, 0);"/>
  <circle id="e16_13" r="9" cx="331" cy="271" style="fill: rgb(255, 0, 0);"/>
  <circle id="e16_14" r="9" cx="331" cy="291" style="fill: rgb(255, 0, 0);"/>
  <circle id="e16_15" r="9" cx="331" cy="311" style="fill: rgb(255, 0, 0);"/>
  <circle id="e16_16" r="9" cx="331" cy="331" style="fill: rgb(255, 0, 0);"/>
</svg>
