<?xml version="1.0"?>
<svg xmlns="http://www.w3.org/2000/svg" id="mosaics" width="262" height="382" viewBox="0 0 262 382">
  <defs>
    <pattern id="pattern1" x="0" y="0" width="20" height="20" patternUnits="userSpaceOnUse">
      <line id="hline" x1="1" y1="1" x2="20" y2="1" style="stroke: rgb(0, 0, 0); stroke-width: 2px;"/>
      <line id="vline" x1="1" y1="0" x2="1" y2="20" style="stroke: rgb(0, 0, 0); stroke-width: 2px;"/>
    </pattern>
  </defs>
  <rect x="20" y="20" width="242" height="362" style="stroke: black; fill: url(#pattern1);"/>
  <text id="n10" x="30" y="14" text-anchor="middle">1</text>
  <text id="n20" x="50" y="14" text-anchor="middle">2</text>
  <text id="n30" x="70" y="14" text-anchor="middle">3</text>
  <text id="n40" x="90" y="14" text-anchor="middle">4</text>
  <text id="n50" x="110" y="14" text-anchor="middle">5</text>
  <text id="n60" x="130" y="14" text-anchor="middle">6</text>
  <text id="n70" x="150" y="14" text-anchor="middle">7</text>
  <text id="n80" x="170" y="14" text-anchor="middle">8</text>
  <text id="n90" x="190" y="14" text-anchor="middle">9</text>
  <text id="n100" x="210" y="14" text-anchor="middle">10</text>
  <text id="n110" x="230" y="14" text-anchor="middle">11</text>
  <text id="n120" x="250" y="14" text-anchor="middle">12</text>
  <text id="n01" x="10" y="34" text-anchor="middle">1</text>
  <text id="n02" x="10" y="54" text-anchor="middle">2</text>
  <text id="n03" x="10" y="74" text-anchor="middle">3</text>
  <text id="n04" x="10" y="94" text-anchor="middle">4</text>
  <text id="n05" x="10" y="114" text-anchor="middle">5</text>
  <text id="n06" x="10" y="134" text-anchor="middle">6</text>
  <text id="n07" x="10" y="154" text-anchor="middle">7</text>
  <text id="n08" x="10" y="174" text-anchor="middle">8</text>
  <text id="n09" x="10" y="194" text-anchor="middle">9</text>
  <text id="n010" x="10" y="214" text-anchor="middle">10</text>
  <text id="n011" x="10" y="234" text-anchor="middle">11</text>
  <text id="n012" x="10" y="254" text-anchor="middle">12</text>
  <text id="n013" x="10" y="274" text-anchor="middle">13</text>
  <text id="n014" x="10" y="294" text-anchor="middle">14</text>
  <text id="n015" x="10" y="314" text-anchor="middle">15</text>
  <text id="n016" x="10" y="334" text-anchor="middle">16</text>
  <text id="n017" x="10" y="354" text-anchor="middle">17</text>
  <text id="n018" x="10" y="374" text-anchor="middle">18</text>
  <circle id="e2_2" r="9" cx="51" cy="51" style="fill: rgb(255, 0, 0);"/>
  <circle id="e2_3" r="9" cx="51" cy="71" style="fill: rgb(255, 0, 0);"/>
  <circle id="e2_4" r="9" cx="51" cy="91" style="fill: rgb(255, 0, 0);"/>
  <circle id="e2_5" r="9" cx="51" cy="111" style="fill: rgb(255, 0, 0);"/>
  <circle id="e2_6" r="9" cx="51" cy="131" style="fill: rgb(255, 0, 0);"/>
  <circle id="e2_7" r="9" cx="51" cy="151" style="fill: rgb(255, 0, 0);"/>
  <circle id="e2_8" r="9" cx="51" cy="171" style="fill: rgb(255, 0, 0);"/>
  <circle id="e2_9" r="9" cx="51" cy="191" style="fill: rgb(255, 0, 0);"/>
  <circle id="e2_10" r="9" cx="51" cy="211" style="fill: rgb(255, 0, 0);"/>
  <circle id="e2_11" r="9" cx="51" cy="231" style="fill: rgb(255, 0, 0);"/>
  <circle id="e2_12" r="9" cx="51" cy="251" style="fill: rgb(255, 0, 0);"/>
  <circle id="e2_13" r="9" cx="51" cy="271" style="fill: rgb(255, 0, 0);"/>
  <circle id="e2_14" r="9" cx="51" cy="291" style="fill: rgb(255, 0, 0);"/>
  <circle id="e3_2" r="9" cx="71" cy="51" style="fill: rgb(255, 0, 0);"/>
  <circle id="e3_3" r="9" cx="71" cy="71" style="fill: rgb(255, 0, 0);"/>
  <circle id="e3_4" r="9" cx="71" cy="91" style="fill: rgb(255, 0, 0);"/>
  <circle id="e3_5" r="9" cx="71" cy="111" style="fill: rgb(255, 0, 0);"/>
  <circle id="e3_6" r="9" cx="71" cy="131" style="fill: rgb(255, 0, 0);"/>
  <circle id="e3_7" r="9" cx="71" cy="151" style="fill: rgb(255, 0, 0);"/>
  <circle id="e3_8" r="9" cx="71" cy="171" style="fill: rgb(255, 0, 0);"/>
  <circle id="e3_9" r="9" cx="71" cy="191" style="fill: rgb(255, 0, 0);"/>
  <circle id="e3_10" r="9" cx="71" cy="211" style="fill: rgb(255, 0, 0);"/>
  <circle id="e3_11" r="9" cx="71" cy="231" style="fill: rgb(255, 0, 0);"/>
  <circle id="e3_12" r="9" cx="71" cy="251" style="fill: rgb(255, 0, 0);"/>
  <circle id="e3_13" r="9" cx="71" cy="271" style="fill: rgb(255, 0, 0);"/>
  <circle id="e3_14" r="9" cx="71" cy="291" style="fill: rgb(255, 0, 0);"/>
  <circle id="e4_2" r="9" cx="91" cy="51" style="fill: rgb(255, 0, 0);"/>
  <circle id="e4_3" r="9" cx="91" cy="71" style="fill: rgb(255, 0, 0);"/>
  <circle id="e4_4" r="9" cx="91" cy="91" style="fill: rgb(255, 0, 0);"/>
  <circle id="e4_5" r="9" cx="91" cy="111" style="fill: rgb(255, 0, 0);"/>
  <circle id="e4_6" r="9" cx="91" cy="131" style="fill: rgb(255, 0, 0);"/>
  <circle id="e4_7" r="9" cx="91" cy="151" style="fill: rgb(255, 0, 0);"/>
  <circle id="e4_8" r="9" cx="91" cy="171" style="fill: rgb(255, 0, 0);"/>
  <circle id="e4_9" r="9" cx="91" cy="191" style="fill: rgb(255, 0, 0);"/>
  <circle id="e4_10" r="9" cx="91" cy="211" style="fill: rgb(255, 0, 0);"/>
  <circle id="e4_11" r="9" cx="91" cy="231" style="fill: rgb(255, 0, 0);"/>
  <circle id="e4_12" r="9" cx="91" cy="251" style="fill: rgb(255, 0, 0);"/>
  <circle id="e4_13" r="9" cx="91" cy="271" style="fill: rgb(255, 0, 0);"/>
  <circle id="e4_14" r="9" cx="91" cy="291" style="fill: rgb(255, 0, 0);"/>
  <circle id="e5_2" r="9" cx="111" cy="51" style="fill: rgb(255, 0, 0);"/>
  <circle id="e5_3" r="9" cx="111" cy="71" style="fill: rgb(255, 0, 0);"/>
  <circle id="e5_4" r="9" cx="111" cy="91" style="fill: rgb(255, 0, 0);"/>
  <circle id="e5_5" r="9" cx="111" cy="111" style="fill: rgb(255, 0, 0);"/>
  <circle id="e5_6" r="9" cx="111" cy="131" style="fill: rgb(255, 0, 0);"/>
  <circle id="e5_7" r="9" cx="111" cy="151" style="fill: rgb(255, 0, 0);"/>
  <circle id="e5_8" r="9" cx="111" cy="171" style="fill: rgb(255, 0, 0);"/>
  <circle id="e5_9" r="9" cx="111" cy="191" style="fill: rgb(255, 0, 0);"/>
  <circle id="e5_10" r="9" cx="111" cy="211" style="fill: rgb(255, 0, 0);"/>
  <circle id="e5_11" r="9" cx="111" cy="231" style="fill: rgb(255, 0, 0);"/>
  <circle id="e5_12" r="9" cx="111" cy="251" style="fill: rgb(255, 0, 0);"/>
  <circle id="e5_13" r="9" cx="111" cy="271" style="fill: rgb(255, 0, 0);"/>
  <circle id="e5_14" r="9" cx="111" cy="291" style="fill: rgb(255, 0, 0);"/>
  <circle id="e6_2" r="9" cx="131" cy="51" style="fill: rgb(255, 0, 0);"/>
  <circle id="e6_3" r="9" cx="131" cy="71" style="fill: rgb(255, 0, 0);"/>
  <circle id="e6_4" r="9" cx="131" cy="91" style="fill: rgb(255, 0, 0);"/>
  <circle id="e6_5" r="9" cx="131" cy="111" style="fill: rgb(255, 0, 0);"/>
  <circle id="e6_6" r="9" cx="131" cy="131" style="fill: rgb(255, 0, 0);"/>
  <circle id="e6_7" r="9" cx="131" cy="151" style="fill: rgb(255, 0, 0);"/>
  <circle id="e6_8" r="9" cx="131" cy="171" style="fill: rgb(255, 0, 0);"/>
  <circle id="e6_9" r="9" cx="131" cy="191" style="fill: rgb(255, 0, 0);"/>
  <circle id="e6_10" r="9" cx="131" cy="211" style="fill: rgb(255, 0, 0);"/>
  <circle id="e6_11" r="9" cx="131" cy="231" style="fill: rgb(255, 0, 0);"/>
  <circle id="e6_12" r="9" cx="131" cy="251" style="fill: rgb(255, 0, 0);"/>
  <circle id="e6_13" r="9" cx="131" cy="271" style="fill: rgb(255, 0, 0);"/>
  <circle id="e6_14" r="9" cx="131" cy="291" style="fill: rgb(255, 0, 0);"/>
  <circle id="e7_2" r="9" cx="151" cy="51" style="fill: rgb(255, 0, 0);"/>
  <circle id="e7_3" r="9" cx="151" cy="71" style="fill: rgb(255, 0, 0);"/>
  <circle id="e7_4" r="9" cx="151" cy="91" style="fill: rgb(255, 0, 0);"/>
  <circle id="e7_5" r="9" cx="151" cy="111" style="fill: rgb(255, 0, 0);"/>
  <circle id="e7_6" r="9" cx="151" cy="131" style="fill: rgb(255, 0, 0);"/>
  <circle id="e7_7" r="9" cx="151" cy="151" style="fill: rgb(255, 0, 0);"/>
  <circle id="e7_8" r="9" cx="151" cy="171" style="fill: rgb(255, 0, 0);"/>
  <circle id="e7_9" r="9" cx="151" cy="191" style="fill: rgb(255, 0, 0);"/>
  <circle id="e7_10" r="9" cx="151" cy="211" style="fill: rgb(255, 0, 0);"/>
  <circle id="e7_11" r="9" cx="151" cy="231" style="fill: rgb(255, 0, 0);"/>
  <circle id="e7_12" r="9" cx="151" cy="251" style="fill: rgb(255, 0, 0);"/>
  <circle id="e7_13" r="9" cx="151" cy="271" style="fill: rgb(255, 0, 0);"/>
  <circle id="e7_14" r="9" cx="151" cy="291" style="fill: rgb(255, 0, 0);"/>
  <circle id="e8_2" r="9" cx="171" cy="51" style="fill: rgb(255, 0, 0);"/>
  <circle id="e8_3" r="9" cx="171" cy="71" style="fill: rgb(255, 0, 0);"/>
  <circle id="e8_4" r="9" cx="171" cy="91" style="fill: rgb(255, 0, 0);"/>
  <circle id="e8_5" r="9" cx="171" cy="111" style="fill: rgb(255, 0, 0);"/>
  <circle id="e8_6" r="9" cx="171" cy="131" style="fill: rgb(255, 0, 0);"/>
  <circle id="e8_7" r="9" cx="171" cy="151" style="fill: rgb(255, 0, 0);"/>
  <circle id="e8_8" r="9" cx="171" cy="171" style="fill: rgb(255, 0, 0);"/>
  <circle id="e8_9" r="9" cx="171" cy="191" style="fill: rgb(255, 0, 0);"/>
  <circle id="e8_10" r="9" cx="171" cy="211" style="fill: rgb(255, 0, 0);"/>
  <circle id="e8_11" r="9" cx="171" cy="231" style="fill: rgb(255, 0, 0);"/>
  <circle id="e8_12" r="9" cx="171" cy="251" style="fill: rgb(255, 0, 0);"/>
  <circle id="e8_13" r="9" cx="171" cy="271" style="fill: rgb(255, 0, 0);"/>
  <circle id="e8_14" r="9" cx="171" cy="291" style="fill: rgb(255, 0, 0);"/>
  <circle id="e9_2" r="9" cx="191" cy="51" style="fill: rgb(255, 0, 0);"/>
  <circle id="e9_3" r="9" cx="191" cy="71" style="fill: rgb(255, 0, 0);"/>
  <circle id="e9_4" r="9" cx="191" cy="91" style="fill: rgb(255, 0, 0);"/>
  <circle id="e9_5" r="9" cx="191" cy="111" style="fill: rgb(255, 0, 0);"/>
  <circle id="e9_6" r="9" cx="191" cy="131" style="fill: rgb(255, 0, 0);"/>
  <circle id="e9_7" r="9" cx="191" cy="151" style="fill: rgb(255, 0, 0);"/>
  <circle id="e9_8" r="9" cx="191" cy="171" style="fill: rgb(255, 0, 0);"/>
  <circle id="e9_9" r="9" cx="191" cy="191" style="fill: rgb(255, 0, 0);"/>
  <circle id="e9_10" r="9" cx="191" cy="211" style="fill: rgb(255, 0, 0);"/>
  <circle id="e9_11" r="9" cx="191" cy="231" style="fill: rgb(255, 0, 0);"/>
  <circle id="e9_12" r="9" cx="191" cy="251" style="fill: rgb(255, 0, 0);"/>
  <circle id="e9_13" r="9" cx="191" cy="271" style="fill: rgb(255, 0, 0);"/>
  <circle id="e9_14" r="9" cx="191" cy="291" style="fill: rgb(255, 0, 0);"/>
  <circle id="e10_2" r="9" cx="211" cy="51" style="fill: rgb(255, 0, 0);"/>
  <circle id="e10_3" r="9" cx="211" cy="71" style="fill: rgb(255, 0, 0);"/>
  <circle id="e10_4" r="9" cx="211" cy="91" style="fill: rgb(255, 0, 0);"/>
  <circle id="e10_5" r="9" cx="211" cy="111" style="fill: rgb(255, 0, 0);"/>
  <circle id="e10_6" r="9" cx="211" cy="131" style="fill: rgb(255, 0, 0);"/>
  <circle id="e10_7" r="9" cx="211" cy="151" style="fill: rgb(255, 0, 0);"/>
  <circle id="e10_8" r="9" cx="211" cy="171" style="fill: rgb(255, 0, 0);"/>
  <circle id="e10_9" r="9" cx="211" cy="191" style="fill: rgb(255, 0, 0);"/>
  <circle id="e10_10" r="9" cx="211" cy="211" style="fill: rgb(255, 0, 0);"/>
  <circle id="e10_11" r="9" cx="211" cy="231" style="fill: rgb(255, 0, 0);"/>
  <circle id="e10_12" r="9" cx="211" cy="251" style="fill: rgb(255, 0, 0);"/>
  <circle id="e10_13" r="9" cx="211" cy="271" style="fill: rgb(255, 0, 0);"/>
  <circle id="e10_14" r="9" cx="211" cy="291" style="fill: rgb(255, 0, 0);"/>
</svg>
