<?xml version="1.0"?>
<svg xmlns="http://www.w3.org/2000/svg" id="mosaics" width="502" height="502" viewbox="0 0 502 502">
  <defs>
    <pattern patternUnits="userSpaceOnUse" height="20" width="20" y="0" x="0" id="mosaics-grid-pattern">
      <line style="stroke: black; stroke-width: 2;" y2="1" x2="20" y1="1" x1="1" id="hline"/>
      <line style="stroke: black; stroke-width: 2;" y2="20" x2="1" y1="0" x1="1" id="vline"/>
    </pattern>
  </defs>
  <rect style="stroke: black; fill: url(#mosaics-grid-pattern);" height="482" width="482" y="20" x="20"/>
  <text id="n10" x="30" y="14" text-anchor="middle">1</text>
  <text id="n20" x="50" y="14" text-anchor="middle">2</text>
  <text id="n30" x="70" y="14" text-anchor="middle">3</text>
  <text id="n40" x="90" y="14" text-anchor="middle">4</text>
  <text id="n50" x="110" y="14" text-anchor="middle">5</text>
  <text id="n60" x="130" y="14" text-anchor="middle">6</text>
  <text id="n70" x="150" y="14" text-anchor="middle">7</text>
  <text id="n80" x="170" y="14" text-anchor="middle">8</text>
  <text id="n90" x="190" y="14" text-anchor="middle">9</text>
  <text id="n100" x="210" y="14" text-anchor="middle">10</text>
  <text id="n110" x="230" y="14" text-anchor="middle">11</text>
  <text id="n120" x="250" y="14" text-anchor="middle">12</text>
  <text id="n130" x="270" y="14" text-anchor="middle">13</text>
  <text id="n140" x="290" y="14" text-anchor="middle">14</text>
  <text id="n150" x="310" y="14" text-anchor="middle">15</text>
  <text id="n160" x="330" y="14" text-anchor="middle">16</text>
  <text id="n170" x="350" y="14" text-anchor="middle">17</text>
  <text id="n180" x="370" y="14" text-anchor="middle">18</text>
  <text id="n190" x="390" y="14" text-anchor="middle">19</text>
  <text id="n200" x="410" y="14" text-anchor="middle">20</text>
  <text id="n210" x="430" y="14" text-anchor="middle">21</text>
  <text id="n220" x="450" y="14" text-anchor="middle">22</text>
  <text id="n230" x="470" y="14" text-anchor="middle">23</text>
  <text id="n240" x="490" y="14" text-anchor="middle">24</text>
  <text id="n01" x="10" y="34" text-anchor="middle">1</text>
  <text id="n02" x="10" y="54" text-anchor="middle">2</text>
  <text id="n03" x="10" y="74" text-anchor="middle">3</text>
  <text id="n04" x="10" y="94" text-anchor="middle">4</text>
  <text id="n05" x="10" y="114" text-anchor="middle">5</text>
  <text id="n06" x="10" y="134" text-anchor="middle">6</text>
  <text id="n07" x="10" y="154" text-anchor="middle">7</text>
  <text id="n08" x="10" y="174" text-anchor="middle">8</text>
  <text id="n09" x="10" y="194" text-anchor="middle">9</text>
  <text id="n010" x="10" y="214" text-anchor="middle">10</text>
  <text id="n011" x="10" y="234" text-anchor="middle">11</text>
  <text id="n012" x="10" y="254" text-anchor="middle">12</text>
  <text id="n013" x="10" y="274" text-anchor="middle">13</text>
  <text id="n014" x="10" y="294" text-anchor="middle">14</text>
  <text id="n015" x="10" y="314" text-anchor="middle">15</text>
  <text id="n016" x="10" y="334" text-anchor="middle">16</text>
  <text id="n017" x="10" y="354" text-anchor="middle">17</text>
  <text id="n018" x="10" y="374" text-anchor="middle">18</text>
  <text id="n019" x="10" y="394" text-anchor="middle">19</text>
  <text id="n020" x="10" y="414" text-anchor="middle">20</text>
  <text id="n021" x="10" y="434" text-anchor="middle">21</text>
  <text id="n022" x="10" y="454" text-anchor="middle">22</text>
  <text id="n023" x="10" y="474" text-anchor="middle">23</text>
  <text id="n024" x="10" y="494" text-anchor="middle">24</text>
  <rect id="e11_12" x="222" y="242" width="18" height="18" style="fill: rgb(255, 0, 0);"/>
  <rect id="e12_12" x="242" y="242" width="18" height="18" style="fill: rgb(255, 0, 0);"/>
  <rect id="e13_12" x="262" y="242" width="18" height="18" style="fill: rgb(255, 0, 0);"/>
  <rect id="e14_12" x="282" y="242" width="18" height="18" style="fill: rgb(255, 0, 0);"/>
  <rect id="e11_13" x="222" y="262" width="18" height="18" style="fill: rgb(255, 0, 0);"/>
  <rect id="e12_13" x="242" y="262" width="18" height="18" style="fill: rgb(255, 0, 0);"/>
  <rect id="e13_13" x="262" y="262" width="18" height="18" style="fill: rgb(255, 0, 0);"/>
  <rect id="e14_13" x="282" y="262" width="18" height="18" style="fill: rgb(255, 0, 0);"/>
  <rect id="e11_14" x="222" y="282" width="18" height="18" style="fill: rgb(255, 0, 0);"/>
  <rect id="e12_14" x="242" y="282" width="18" height="18" style="fill: rgb(255, 0, 0);"/>
  <rect id="e13_14" x="262" y="282" width="18" height="18" style="fill: rgb(255, 0, 0);"/>
  <rect id="e14_14" x="282" y="282" width="18" height="18" style="fill: rgb(255, 0, 0);"/>
  <rect id="e11_15" x="222" y="302" width="18" height="18" style="fill: rgb(255, 0, 0);"/>
  <rect id="e12_15" x="242" y="302" width="18" height="18" style="fill: rgb(255, 0, 0);"/>
  <rect id="e13_15" x="262" y="302" width="18" height="18" style="fill: rgb(255, 0, 0);"/>
  <rect id="e14_15" x="282" y="302" width="18" height="18" style="fill: rgb(255, 0, 0);"/>
  <rect id="e11_16" x="222" y="322" width="18" height="18" style="fill: rgb(255, 0, 0);"/>
  <rect id="e12_16" x="242" y="322" width="18" height="18" style="fill: rgb(255, 0, 0);"/>
  <rect id="e13_16" x="262" y="322" width="18" height="18" style="fill: rgb(255, 0, 0);"/>
  <rect id="e14_16" x="282" y="322" width="18" height="18" style="fill: rgb(255, 0, 0);"/>
  <rect id="e11_17" x="222" y="342" width="18" height="18" style="fill: rgb(255, 0, 0);"/>
  <rect id="e12_17" x="242" y="342" width="18" height="18" style="fill: rgb(255, 0, 0);"/>
  <rect id="e13_17" x="262" y="342" width="18" height="18" style="fill: rgb(255, 0, 0);"/>
  <rect id="e14_17" x="282" y="342" width="18" height="18" style="fill: rgb(255, 0, 0);"/>
  <rect id="e11_18" x="222" y="362" width="18" height="18" style="fill: rgb(255, 0, 0);"/>
  <rect id="e12_18" x="242" y="362" width="18" height="18" style="fill: rgb(255, 0, 0);"/>
  <rect id="e13_18" x="262" y="362" width="18" height="18" style="fill: rgb(255, 0, 0);"/>
  <rect id="e14_18" x="282" y="362" width="18" height="18" style="fill: rgb(255, 0, 0);"/>
  <rect id="e11_19" x="222" y="382" width="18" height="18" style="fill: rgb(255, 0, 0);"/>
  <rect id="e12_19" x="242" y="382" width="18" height="18" style="fill: rgb(255, 0, 0);"/>
  <rect id="e13_19" x="262" y="382" width="18" height="18" style="fill: rgb(255, 0, 0);"/>
  <rect id="e14_19" x="282" y="382" width="18" height="18" style="fill: rgb(255, 0, 0);"/>
  <rect id="e11_20" x="222" y="402" width="18" height="18" style="fill: rgb(255, 0, 0);"/>
  <rect id="e12_20" x="242" y="402" width="18" height="18" style="fill: rgb(255, 0, 0);"/>
  <rect id="e13_20" x="262" y="402" width="18" height="18" style="fill: rgb(255, 0, 0);"/>
  <rect id="e14_20" x="282" y="402" width="18" height="18" style="fill: rgb(255, 0, 0);"/>
  <rect id="e11_21" x="222" y="422" width="18" height="18" style="fill: rgb(255, 0, 0);"/>
  <rect id="e12_21" x="242" y="422" width="18" height="18" style="fill: rgb(255, 0, 0);"/>
  <rect id="e13_21" x="262" y="422" width="18" height="18" style="fill: rgb(255, 0, 0);"/>
  <rect id="e14_21" x="282" y="422" width="18" height="18" style="fill: rgb(255, 0, 0);"/>
  <rect id="e11_22" x="222" y="442" width="18" height="18" style="fill: rgb(255, 0, 0);"/>
  <rect id="e12_22" x="242" y="442" width="18" height="18" style="fill: rgb(255, 0, 0);"/>
  <rect id="e13_22" x="262" y="442" width="18" height="18" style="fill: rgb(255, 0, 0);"/>
  <rect id="e14_22" x="282" y="442" width="18" height="18" style="fill: rgb(255, 0, 0);"/>
  <rect id="e11_23" x="222" y="462" width="18" height="18" style="fill: rgb(255, 0, 0);"/>
  <rect id="e12_23" x="242" y="462" width="18" height="18" style="fill: rgb(255, 0, 0);"/>
  <rect id="e13_23" x="262" y="462" width="18" height="18" style="fill: rgb(255, 0, 0);"/>
  <rect id="e14_23" x="282" y="462" width="18" height="18" style="fill: rgb(255, 0, 0);"/>
  <rect id="e11_24" x="222" y="482" width="18" height="18" style="fill: rgb(255, 0, 0);"/>
  <rect id="e12_24" x="242" y="482" width="18" height="18" style="fill: rgb(255, 0, 0);"/>
  <rect id="e13_24" x="262" y="482" width="18" height="18" style="fill: rgb(255, 0, 0);"/>
  <rect id="e14_24" x="282" y="482" width="18" height="18" style="fill: rgb(255, 0, 0);"/>
  <rect id="e10_12" x="202" y="242" width="18" height="18" style="fill: rgb(255, 0, 0);"/>
  <rect id="e10_13" x="202" y="262" width="18" height="18" style="fill: rgb(255, 0, 0);"/>
  <rect id="e10_14" x="202" y="282" width="18" height="18" style="fill: rgb(255, 0, 0);"/>
  <rect id="e10_15" x="202" y="302" width="18" height="18" style="fill: rgb(255, 0, 0);"/>
  <rect id="e10_16" x="202" y="322" width="18" height="18" style="fill: rgb(255, 0, 0);"/>
  <rect id="e10_17" x="202" y="342" width="18" height="18" style="fill: rgb(255, 0, 0);"/>
  <rect id="e15_12" x="302" y="242" width="18" height="18" style="fill: rgb(255, 0, 0);"/>
  <rect id="e15_13" x="302" y="262" width="18" height="18" style="fill: rgb(255, 0, 0);"/>
  <rect id="e15_14" x="302" y="282" width="18" height="18" style="fill: rgb(255, 0, 0);"/>
  <rect id="e15_15" x="302" y="302" width="18" height="18" style="fill: rgb(255, 0, 0);"/>
  <rect id="e15_16" x="302" y="322" width="18" height="18" style="fill: rgb(255, 0, 0);"/>
  <rect id="e15_17" x="302" y="342" width="18" height="18" style="fill: rgb(255, 0, 0);"/>
  <polygon id="e10_18" points="202,362 220,362 220,380" style="fill: rgb(255, 0, 0);"/>
  <polygon id="e15_18" points="302,362 320,362 302,380" style="fill: rgb(255, 0, 0);"/>
  <polygon id="e16_12" points="322,242 340,242 322,260" style="fill: rgb(255, 0, 0);"/>
  <polygon id="e9_12" points="182,242 200,260 200,242" style="fill: rgb(255, 0, 0);"/>
  <rect id="e3_9" x="62" y="182" width="18" height="18" style="fill: rgb(255, 0, 0);"/>
  <rect id="e4_9" x="82" y="182" width="18" height="18" style="fill: rgb(255, 0, 0);"/>
  <rect id="e5_9" x="102" y="182" width="18" height="18" style="fill: rgb(255, 0, 0);"/>
  <rect id="e6_9" x="122" y="182" width="18" height="18" style="fill: rgb(255, 0, 0);"/>
  <rect id="e7_9" x="142" y="182" width="18" height="18" style="fill: rgb(255, 0, 0);"/>
  <rect id="e8_9" x="162" y="182" width="18" height="18" style="fill: rgb(255, 0, 0);"/>
  <rect id="e9_9" x="182" y="182" width="18" height="18" style="fill: rgb(255, 0, 0);"/>
  <rect id="e10_9" x="202" y="182" width="18" height="18" style="fill: rgb(255, 0, 0);"/>
  <rect id="e11_9" x="222" y="182" width="18" height="18" style="fill: rgb(255, 0, 0);"/>
  <rect id="e12_9" x="242" y="182" width="18" height="18" style="fill: rgb(255, 0, 0);"/>
  <rect id="e13_9" x="262" y="182" width="18" height="18" style="fill: rgb(255, 0, 0);"/>
  <rect id="e14_9" x="282" y="182" width="18" height="18" style="fill: rgb(255, 0, 0);"/>
  <rect id="e15_9" x="302" y="182" width="18" height="18" style="fill: rgb(255, 0, 0);"/>
  <rect id="e16_9" x="322" y="182" width="18" height="18" style="fill: rgb(255, 0, 0);"/>
  <rect id="e17_9" x="342" y="182" width="18" height="18" style="fill: rgb(255, 0, 0);"/>
  <rect id="e18_9" x="362" y="182" width="18" height="18" style="fill: rgb(255, 0, 0);"/>
  <rect id="e19_9" x="382" y="182" width="18" height="18" style="fill: rgb(255, 0, 0);"/>
  <rect id="e20_9" x="402" y="182" width="18" height="18" style="fill: rgb(255, 0, 0);"/>
  <rect id="e21_9" x="422" y="182" width="18" height="18" style="fill: rgb(255, 0, 0);"/>
  <rect id="e22_9" x="442" y="182" width="18" height="18" style="fill: rgb(255, 0, 0);"/>
  <rect id="e2_10" x="42" y="202" width="18" height="18" style="fill: rgb(255, 0, 0);"/>
  <rect id="e3_10" x="62" y="202" width="18" height="18" style="fill: rgb(255, 0, 0);"/>
  <rect id="e4_10" x="82" y="202" width="18" height="18" style="fill: rgb(255, 0, 0);"/>
  <rect id="e5_10" x="102" y="202" width="18" height="18" style="fill: rgb(255, 0, 0);"/>
  <rect id="e6_10" x="122" y="202" width="18" height="18" style="fill: rgb(255, 0, 0);"/>
  <rect id="e7_10" x="142" y="202" width="18" height="18" style="fill: rgb(255, 0, 0);"/>
  <rect id="e8_10" x="162" y="202" width="18" height="18" style="fill: rgb(255, 0, 0);"/>
  <rect id="e9_10" x="182" y="202" width="18" height="18" style="fill: rgb(255, 0, 0);"/>
  <rect id="e10_10" x="202" y="202" width="18" height="18" style="fill: rgb(255, 0, 0);"/>
  <rect id="e11_10" x="222" y="202" width="18" height="18" style="fill: rgb(255, 0, 0);"/>
  <rect id="e12_10" x="242" y="202" width="18" height="18" style="fill: rgb(255, 0, 0);"/>
  <rect id="e13_10" x="262" y="202" width="18" height="18" style="fill: rgb(255, 0, 0);"/>
  <rect id="e14_10" x="282" y="202" width="18" height="18" style="fill: rgb(255, 0, 0);"/>
  <rect id="e15_10" x="302" y="202" width="18" height="18" style="fill: rgb(255, 0, 0);"/>
  <rect id="e16_10" x="322" y="202" width="18" height="18" style="fill: rgb(255, 0, 0);"/>
  <rect id="e17_10" x="342" y="202" width="18" height="18" style="fill: rgb(255, 0, 0);"/>
  <rect id="e18_10" x="362" y="202" width="18" height="18" style="fill: rgb(255, 0, 0);"/>
  <rect id="e19_10" x="382" y="202" width="18" height="18" style="fill: rgb(255, 0, 0);"/>
  <rect id="e20_10" x="402" y="202" width="18" height="18" style="fill: rgb(255, 0, 0);"/>
  <rect id="e21_10" x="422" y="202" width="18" height="18" style="fill: rgb(255, 0, 0);"/>
  <rect id="e22_10" x="442" y="202" width="18" height="18" style="fill: rgb(255, 0, 0);"/>
  <rect id="e23_10" x="462" y="202" width="18" height="18" style="fill: rgb(255, 0, 0);"/>
  <rect id="e3_11" x="62" y="222" width="18" height="18" style="fill: rgb(255, 0, 0);"/>
  <rect id="e4_11" x="82" y="222" width="18" height="18" style="fill: rgb(255, 0, 0);"/>
  <rect id="e5_11" x="102" y="222" width="18" height="18" style="fill: rgb(255, 0, 0);"/>
  <rect id="e6_11" x="122" y="222" width="18" height="18" style="fill: rgb(255, 0, 0);"/>
  <rect id="e7_11" x="142" y="222" width="18" height="18" style="fill: rgb(255, 0, 0);"/>
  <rect id="e8_11" x="162" y="222" width="18" height="18" style="fill: rgb(255, 0, 0);"/>
  <rect id="e9_11" x="182" y="222" width="18" height="18" style="fill: rgb(255, 0, 0);"/>
  <rect id="e10_11" x="202" y="222" width="18" height="18" style="fill: rgb(255, 0, 0);"/>
  <rect id="e11_11" x="222" y="222" width="18" height="18" style="fill: rgb(255, 0, 0);"/>
  <rect id="e12_11" x="242" y="222" width="18" height="18" style="fill: rgb(255, 0, 0);"/>
  <rect id="e13_11" x="262" y="222" width="18" height="18" style="fill: rgb(255, 0, 0);"/>
  <rect id="e14_11" x="282" y="222" width="18" height="18" style="fill: rgb(255, 0, 0);"/>
  <rect id="e15_11" x="302" y="222" width="18" height="18" style="fill: rgb(255, 0, 0);"/>
  <rect id="e16_11" x="322" y="222" width="18" height="18" style="fill: rgb(255, 0, 0);"/>
  <rect id="e17_11" x="342" y="222" width="18" height="18" style="fill: rgb(255, 0, 0);"/>
  <rect id="e18_11" x="362" y="222" width="18" height="18" style="fill: rgb(255, 0, 0);"/>
  <rect id="e19_11" x="382" y="222" width="18" height="18" style="fill: rgb(255, 0, 0);"/>
  <rect id="e20_11" x="402" y="222" width="18" height="18" style="fill: rgb(255, 0, 0);"/>
  <rect id="e21_11" x="422" y="222" width="18" height="18" style="fill: rgb(255, 0, 0);"/>
  <rect id="e22_11" x="442" y="222" width="18" height="18" style="fill: rgb(255, 0, 0);"/>
  <polygon id="e11_8" points="222,180 240,180 240,162" style="fill: rgb(255, 0, 0);"/>
  <polygon id="e2_9" points="42,200 60,200 60,182" style="fill: rgb(255, 0, 0);"/>
  <polygon id="e23_9" points="462,182 462,200 480,200" style="fill: rgb(255, 0, 0);"/>
  <polygon id="e14_8" points="282,162 282,180 300,180" style="fill: rgb(255, 0, 0);"/>
  <rect id="e12_8" x="242" y="162" width="18" height="18" style="fill: rgb(255, 0, 0);"/>
  <rect id="e13_8" x="262" y="162" width="18" height="18" style="fill: rgb(255, 0, 0);"/>
  <rect id="e12_7" x="242" y="142" width="18" height="18" style="fill: rgb(255, 0, 0);"/>
  <rect id="e13_7" x="262" y="142" width="18" height="18" style="fill: rgb(255, 0, 0);"/>
  <rect id="e10_2" x="202" y="42" width="18" height="18" style="fill: rgb(255, 0, 0);"/>
  <rect id="e11_2" x="222" y="42" width="18" height="18" style="fill: rgb(255, 0, 0);"/>
  <rect id="e12_2" x="242" y="42" width="18" height="18" style="fill: rgb(255, 0, 0);"/>
  <rect id="e13_2" x="262" y="42" width="18" height="18" style="fill: rgb(255, 0, 0);"/>
  <rect id="e14_2" x="282" y="42" width="18" height="18" style="fill: rgb(255, 0, 0);"/>
  <rect id="e15_2" x="302" y="42" width="18" height="18" style="fill: rgb(255, 0, 0);"/>
  <rect id="e10_3" x="202" y="62" width="18" height="18" style="fill: rgb(255, 0, 0);"/>
  <rect id="e11_3" x="222" y="62" width="18" height="18" style="fill: rgb(255, 0, 0);"/>
  <rect id="e12_3" x="242" y="62" width="18" height="18" style="fill: rgb(255, 0, 0);"/>
  <rect id="e13_3" x="262" y="62" width="18" height="18" style="fill: rgb(255, 0, 0);"/>
  <rect id="e14_3" x="282" y="62" width="18" height="18" style="fill: rgb(255, 0, 0);"/>
  <rect id="e15_3" x="302" y="62" width="18" height="18" style="fill: rgb(255, 0, 0);"/>
  <rect id="e10_4" x="202" y="82" width="18" height="18" style="fill: rgb(255, 0, 0);"/>
  <rect id="e11_4" x="222" y="82" width="18" height="18" style="fill: rgb(255, 0, 0);"/>
  <rect id="e12_4" x="242" y="82" width="18" height="18" style="fill: rgb(255, 0, 0);"/>
  <rect id="e13_4" x="262" y="82" width="18" height="18" style="fill: rgb(255, 0, 0);"/>
  <rect id="e14_4" x="282" y="82" width="18" height="18" style="fill: rgb(255, 0, 0);"/>
  <rect id="e15_4" x="302" y="82" width="18" height="18" style="fill: rgb(255, 0, 0);"/>
  <rect id="e10_5" x="202" y="102" width="18" height="18" style="fill: rgb(255, 0, 0);"/>
  <rect id="e11_5" x="222" y="102" width="18" height="18" style="fill: rgb(255, 0, 0);"/>
  <rect id="e12_5" x="242" y="102" width="18" height="18" style="fill: rgb(255, 0, 0);"/>
  <rect id="e13_5" x="262" y="102" width="18" height="18" style="fill: rgb(255, 0, 0);"/>
  <rect id="e14_5" x="282" y="102" width="18" height="18" style="fill: rgb(255, 0, 0);"/>
  <rect id="e15_5" x="302" y="102" width="18" height="18" style="fill: rgb(255, 0, 0);"/>
  <rect id="e10_6" x="202" y="122" width="18" height="18" style="fill: rgb(255, 0, 0);"/>
  <rect id="e11_6" x="222" y="122" width="18" height="18" style="fill: rgb(255, 0, 0);"/>
  <rect id="e12_6" x="242" y="122" width="18" height="18" style="fill: rgb(255, 0, 0);"/>
  <rect id="e13_6" x="262" y="122" width="18" height="18" style="fill: rgb(255, 0, 0);"/>
  <rect id="e14_6" x="282" y="122" width="18" height="18" style="fill: rgb(255, 0, 0);"/>
  <rect id="e15_6" x="302" y="122" width="18" height="18" style="fill: rgb(255, 0, 0);"/>
  <rect id="e9_2" x="182" y="42" width="18" height="18" style="fill: rgb(255, 0, 0);"/>
  <rect id="e16_2" x="322" y="42" width="18" height="18" style="fill: rgb(255, 0, 0);"/>
  <polygon id="e2_11" points="42,222 60,222 60,240" style="fill: rgb(255, 0, 0);"/>
  <polygon id="e23_11" points="462,222 462,240 480,222" style="fill: rgb(255, 0, 0);"/>
  <rect id="e10_24" x="202" y="482" width="18" height="18" style="fill: rgb(255, 0, 0);"/>
  <rect id="e15_24" x="302" y="482" width="18" height="18" style="fill: rgb(255, 0, 0);"/>
</svg>
